<?xml version="1.0" encoding="utf-8"?>
<!-- Generator: Adobe Illustrator 26.5.0, SVG Export Plug-In . SVG Version: 6.00 Build 0)  -->
<svg version="1.1" id="Layer_1" xmlns="http://www.w3.org/2000/svg" xmlns:xlink="http://www.w3.org/1999/xlink" x="0px" y="0px"
	 viewBox="0 0 325.2 423.7" style="enable-background:new 0 0 325.2 423.7;" xml:space="preserve">
<style type="text/css">
	.st0{fill:#E8A869;}
</style>
<g>
	<path class="st0" d="M266.4,208c0.4-0.5,0.8-1,1.2-1.5c0-0.1,0.1-0.2,0.2-0.2c0.3-0.5,0.7-1.1,1-1.6c0-0.1,0.1-0.2,0.1-0.3
		c0.3-0.6,0.5-1.1,0.7-1.7c0-0.1,0.1-0.2,0.1-0.3c0.2-0.6,0.4-1.2,0.5-1.8c0-0.1,0-0.2,0.1-0.3c0.1-0.6,0.2-1.3,0.3-1.9
		c0-0.1,0-0.2,0-0.3c0-0.7,0.1-1.3,0-2c0-0.1,0-0.2,0-0.3c0-0.7-0.1-1.4-0.2-2.1c0-0.1,0-0.1,0-0.2c-0.1-0.7-0.3-1.5-0.5-2.2
		c0,0,0-0.1,0-0.1c-0.2-0.8-0.5-1.6-0.8-2.4c-0.1-0.2-0.2-0.5-0.3-0.7s-0.1-0.3-0.1-0.3c0,0,1.3-0.1,2.8-0.1c4.1,0,7.6-1.7,10.2-4.2
		c3-3,4.8-7.3,4.6-11.8c-0.1-1.9-0.6-3.8-1.4-5.7l-0.7-1.5l0.7-0.9c3.5-4.2,5.5-9.4,6-14.7c0.3-2.7,0.2-5.3-0.3-7.8
		c-0.3-1.7-0.8-3.3-1.4-4.9c-1.6-3.9-4.1-7.2-7.5-9.3l-1.3-0.8l0.9-2.8c2.1-6.4,1.9-11.8-0.7-16.2c-2-3.4-5.4-6.1-10.2-8.1l-2.2-0.9
		l0,0l0-5.2v0c0-4.1-0.8-7.8-2.1-10.8c-3-6.8-9-10.7-17.1-10.7c0,0-0.1,0-0.1,0c0,0,0,0-0.1,0c-0.1,0-0.1,0-0.2,0c0,0-0.1,0-0.1,0
		c0,0-0.1,0-0.1,0s-0.1,0-0.1,0c0,0-0.1,0-0.1,0c0,0-0.1-0.1-0.1-0.1c0,0,0-0.1-0.1-0.1c0,0-0.1-0.1-0.1-0.2c0,0,0-0.1-0.1-0.2
		c0-0.1-0.1-0.2-0.1-0.3c0-0.1,0-0.1-0.1-0.2c0-0.1-0.1-0.3-0.1-0.5c0-0.1,0-0.1-0.1-0.2c-0.1-0.3-0.2-0.6-0.2-0.9
		c-0.1-0.5-0.2-0.9-0.4-1.4c0-0.2-0.1-0.3-0.2-0.4c-0.1-0.3-0.2-0.6-0.3-0.9c-0.1-0.2-0.1-0.3-0.2-0.5c-0.1-0.2-0.2-0.5-0.3-0.7
		c-0.1-0.2-0.2-0.3-0.3-0.5c-0.1-0.2-0.2-0.4-0.3-0.6c-0.1-0.2-0.2-0.3-0.3-0.5c-0.1-0.2-0.2-0.4-0.4-0.6c-0.1-0.2-0.2-0.3-0.3-0.4
		c-0.1-0.2-0.3-0.3-0.4-0.5c-0.1-0.1-0.2-0.3-0.4-0.4c-0.2-0.2-0.3-0.3-0.5-0.5c-0.1-0.1-0.3-0.2-0.4-0.4c-0.2-0.1-0.3-0.3-0.5-0.4
		c-0.1-0.1-0.3-0.2-0.4-0.3c-0.2-0.1-0.3-0.2-0.5-0.3c-0.2-0.1-0.3-0.2-0.5-0.3c-0.2-0.1-0.4-0.2-0.6-0.3c-0.2-0.1-0.3-0.2-0.5-0.2
		c-0.2-0.1-0.4-0.2-0.6-0.2c-0.2-0.1-0.3-0.1-0.5-0.2c-0.2-0.1-0.4-0.1-0.7-0.2c-0.2,0-0.3-0.1-0.5-0.1c-0.2-0.1-0.5-0.1-0.7-0.1
		c-0.2,0-0.3-0.1-0.5-0.1c-0.3,0-0.5-0.1-0.8-0.1c-0.2,0-0.3,0-0.5,0c-0.4,0-0.8,0-1.1,0c-0.1,0-0.2,0-0.2,0h0c-0.5,0-1,0-1.5,0
		l-2.4,0.2l-0.2-0.9c-0.1-0.6-0.3-1.2-0.5-1.7c0-0.1-0.1-0.3-0.1-0.4c-0.2-0.5-0.4-1-0.7-1.5c0,0,0,0,0,0c-0.3-0.5-0.6-0.9-0.9-1.3
		c-0.1-0.1-0.2-0.2-0.2-0.3c-0.3-0.4-0.7-0.7-1.1-1c0,0,0,0,0,0c-0.4-0.3-0.8-0.6-1.3-0.8c-0.1-0.1-0.2-0.1-0.4-0.2
		c-0.5-0.2-0.9-0.4-1.5-0.5c0,0-0.1,0-0.1,0c-0.5-0.2-1.1-0.3-1.7-0.3c-0.2,0-0.3,0-0.5-0.1c-0.6-0.1-1.2-0.1-1.8-0.1
		c0,0-0.1,0-0.1,0c0,0,0,0,0,0c-0.3,0-0.6,0-0.9,0c-0.2,0-0.5,0-0.7,0c-0.3,0-0.7,0.1-1,0.1c-0.2,0-0.5,0-0.7,0.1
		c-0.4,0-0.8,0.1-1.2,0.2c-0.2,0-0.4,0.1-0.6,0.1c-0.6,0.1-1.3,0.3-1.9,0.4c-0.1,0-0.1,0-0.2,0h0h0c-0.1,0-0.1,0-0.2-0.1
		c0,0,0,0,0,0c-0.1,0-0.2-0.1-0.2-0.2c0,0,0,0,0,0c-0.1-0.1-0.2-0.2-0.3-0.4c0,0,0-0.1,0-0.1c-0.1-0.2-0.2-0.3-0.3-0.6
		c-0.3-0.5-0.5-0.9-0.8-1.3c-0.1-0.1-0.2-0.2-0.3-0.4c-0.2-0.3-0.4-0.5-0.6-0.8c-0.1-0.1-0.2-0.2-0.4-0.4c-0.2-0.2-0.5-0.4-0.7-0.6
		c-0.1-0.1-0.2-0.2-0.4-0.3c-0.3-0.2-0.5-0.4-0.8-0.6c-0.1-0.1-0.2-0.1-0.3-0.2c-0.4-0.2-0.8-0.4-1.2-0.6c-0.1,0-0.2-0.1-0.3-0.1
		c-0.3-0.1-0.7-0.2-1-0.3c-0.2,0-0.3-0.1-0.5-0.1c-0.3-0.1-0.6-0.1-0.9-0.2c-0.2,0-0.3,0-0.5-0.1c-0.3,0-0.7,0-1-0.1
		c-0.1,0-0.2,0-0.3,0c0,0-0.1,0-0.1,0c-0.6,0-1.2,0-1.9,0.1c-0.1,0-0.3,0-0.4,0.1c-0.6,0.1-1.2,0.2-1.8,0.4c-0.1,0-0.2,0-0.3,0.1
		c-0.7,0.2-1.4,0.4-2.1,0.7c-0.2,0.1-0.3,0.1-0.5,0.2c-0.7,0.3-1.5,0.6-2.2,1l-1.7,0.8l-1.2-0.9c-0.3-0.3-0.7-0.5-1.1-0.8
		c-0.1-0.1-0.2-0.1-0.3-0.2c-0.2-0.2-0.5-0.3-0.8-0.5c-0.2-0.1-0.3-0.1-0.5-0.2c-0.2-0.1-0.5-0.2-0.7-0.3c-0.2-0.1-0.3-0.1-0.5-0.2
		c-0.2-0.1-0.5-0.2-0.7-0.3c-0.2-0.1-0.3-0.1-0.5-0.2c-0.2-0.1-0.5-0.1-0.7-0.2c-0.2,0-0.4-0.1-0.6-0.1c-0.2,0-0.5-0.1-0.7-0.1
		c-0.2,0-0.4,0-0.6-0.1c-0.2,0-0.5-0.1-0.7-0.1c-0.2,0-0.4,0-0.6,0c-0.2,0-0.5,0-0.8,0c-0.1,0-0.1,0-0.2,0c-0.2,0-0.4,0-0.5,0
		c-0.2,0-0.4,0-0.7,0c-0.2,0-0.5,0-0.8,0.1c-0.2,0-0.4,0-0.7,0.1c-0.3,0-0.5,0.1-0.8,0.1c-0.2,0-0.4,0.1-0.7,0.1
		c-0.3,0-0.6,0.1-0.9,0.2c-0.2,0-0.4,0.1-0.6,0.1c-0.3,0.1-0.6,0.2-0.9,0.2c-0.2,0.1-0.4,0.1-0.6,0.2c-0.3,0.1-0.6,0.2-1,0.3
		c-0.2,0.1-0.4,0.1-0.6,0.2c-0.4,0.1-0.8,0.3-1.1,0.4c-0.2,0.1-0.3,0.1-0.5,0.2c-0.5,0.2-1.1,0.4-1.7,0.7l-2.1,0.9l-1.7-0.4
		c-0.6-0.2-1.2-0.3-1.9-0.4c-0.2,0-0.4-0.1-0.6-0.1c-0.4-0.1-0.8-0.1-1.2-0.2c-0.2,0-0.5,0-0.7-0.1c-0.4,0-0.8-0.1-1.1-0.1
		c-0.2,0-0.5,0-0.8,0c-0.4,0-0.7,0-1.1,0c-0.1,0-0.2,0-0.4,0c-0.1,0-0.2,0-0.3,0c-0.6,0-1.3,0-1.9,0.1c-0.1,0-0.2,0-0.3,0
		c-0.7,0.1-1.5,0.2-2.2,0.2c-0.2,0-0.4,0.1-0.6,0.1c-0.6,0.1-1.2,0.2-1.8,0.3c-0.2,0-0.3,0.1-0.5,0.1c-0.7,0.2-1.4,0.4-2.1,0.6
		c-0.2,0-0.3,0.1-0.5,0.2c-0.6,0.2-1.2,0.4-1.7,0.6c-0.2,0.1-0.4,0.1-0.5,0.2c-0.7,0.3-1.4,0.6-2.1,0.9c-0.1,0-0.2,0.1-0.3,0.2
		c-0.6,0.3-1.2,0.6-1.8,0.9c-0.2,0.1-0.4,0.2-0.5,0.3c-0.7,0.4-1.3,0.8-2,1.3l-1.4,1l-4,0.1c-4.5,0.2-8.6,1.1-12.1,2.7
		c-1.2,0.5-2.3,1.2-3.4,1.9c-1.6,1.1-3.1,2.3-4.4,3.8c-2.2,2.4-4.1,5.3-5.6,8.7c-0.1,0.3-0.2,0.6-0.3,0.8c-0.7,1.6-0.8,1.5-3.2,1.8
		c-1.7,0.3-3.3,0.6-4.7,1.1c-1,0.3-1.9,0.7-2.7,1.1c-2.1,1.1-3.9,2.5-5.3,4.2c-1.5,1.8-2.6,3.9-3.5,6.5c-0.2,0.5-0.3,1-0.5,1.6
		l-0.5,1.8L81,87.4c-0.8,0.3-1.6,0.7-2.4,1.1c-0.4,0.2-0.7,0.5-1.1,0.7c-0.7,0.5-1.3,1.1-1.9,1.7s-1.1,1.3-1.6,2
		c-0.5,0.7-0.9,1.5-1.3,2.4c-1.4,2.9-2,6.5-2,10.7v1.9l-1.2,0.6c0,0,0,0,0,0c-0.4,0.2-0.8,0.4-1.1,0.6c-0.1,0.1-0.2,0.2-0.4,0.2
		c-0.2,0.2-0.5,0.3-0.7,0.5c-0.1,0.1-0.2,0.2-0.4,0.3c-0.2,0.2-0.4,0.3-0.5,0.5c-0.1,0.1-0.2,0.2-0.4,0.4c-0.1,0.2-0.3,0.3-0.4,0.5
		c-0.1,0.1-0.2,0.3-0.3,0.4c-0.1,0.2-0.2,0.3-0.4,0.5c-0.1,0.1-0.2,0.3-0.3,0.4c-0.1,0.2-0.2,0.3-0.3,0.5c-0.1,0.1-0.1,0.3-0.2,0.4
		c-0.1,0.2-0.2,0.3-0.2,0.5c-0.1,0.2-0.1,0.3-0.2,0.5c-0.1,0.2-0.1,0.3-0.2,0.5c0,0.2-0.1,0.3-0.1,0.5c0,0.2-0.1,0.3-0.1,0.5
		c0,0.2-0.1,0.3-0.1,0.5c0,0.2,0,0.3-0.1,0.5c0,0.2,0,0.3,0,0.5c0,0.2,0,0.4,0,0.5c0,0.2,0,0.3,0,0.5c0,0.2,0,0.4,0,0.5
		c0,0.2,0,0.3,0,0.5c0,0.2,0,0.4,0.1,0.5c0,0.2,0,0.3,0.1,0.5c0,0.2,0.1,0.4,0.1,0.5c0,0.2,0.1,0.3,0.1,0.5c0,0.2,0.1,0.4,0.2,0.5
		c0,0.2,0.1,0.3,0.2,0.5c0.1,0.2,0.1,0.3,0.2,0.5c0.1,0.2,0.1,0.3,0.2,0.5c0.1,0.2,0.2,0.3,0.3,0.5c0.1,0.2,0.1,0.3,0.2,0.4
		c0.1,0.2,0.2,0.3,0.3,0.5c0.1,0.1,0.2,0.3,0.2,0.4c0.1,0.2,0.2,0.4,0.4,0.5c0.1,0.1,0.2,0.2,0.2,0.4c0.2,0.2,0.4,0.5,0.6,0.7
		c0.1,0.1,0.1,0.2,0.2,0.2c0.2,0.2,0.4,0.5,0.7,0.7c0.1,0.1,0.2,0.2,0.3,0.3c0.2,0.2,0.3,0.3,0.5,0.5c0.1,0.1,0.2,0.2,0.4,0.3
		c0.2,0.1,0.3,0.3,0.5,0.4c0.1,0.1,0.3,0.2,0.4,0.3c0.2,0.1,0.4,0.2,0.5,0.3c0.1,0.1,0.3,0.2,0.5,0.3c0.2,0.1,0.4,0.2,0.6,0.3
		c0.2,0.1,0.3,0.2,0.5,0.2c0.2,0.1,0.4,0.2,0.6,0.3c0.2,0.1,0.3,0.1,0.5,0.2c0.2,0.1,0.4,0.2,0.6,0.2c0.2,0.1,0.4,0.1,0.5,0.2
		c0.2,0.1,0.4,0.1,0.6,0.2c0.2,0,0.4,0.1,0.6,0.1c0.2,0,0.4,0.1,0.7,0.1c0.2,0,0.4,0,0.6,0.1c0.2,0,0.5,0,0.7,0.1c0.2,0,0.4,0,0.6,0
		c0.1,0,0.2,0,0.3,0c0.1,0,0.2,0,0.2,0c0.6,0,1.2,0,1.9-0.1l0,0l1.3-0.2l1.1,1.6c0.5,0.7,1.1,1.4,1.7,2.1c0.2,0.2,0.4,0.4,0.6,0.6
		c0.4,0.5,0.9,1,1.4,1.4c0.2,0.2,0.5,0.4,0.7,0.6c0.5,0.5,1,0.9,1.6,1.3c0.2,0.2,0.4,0.3,0.6,0.5c0.7,0.6,1.5,1.1,2.3,1.7
		c0.2,0.1,0.3,0.2,0.5,0.3c0.6,0.4,1.3,0.8,1.9,1.2c0.3,0.2,0.6,0.3,0.9,0.5c0.6,0.3,1.2,0.6,1.8,0.9c0.3,0.1,0.6,0.3,0.9,0.4
		c0.7,0.3,1.5,0.7,2.2,1c0.2,0.1,0.3,0.1,0.5,0.2c0.9,0.3,1.9,0.7,2.8,1c0.3,0.1,0.6,0.2,0.8,0.2c0.7,0.2,1.4,0.4,2.1,0.6
		c0.3,0.1,0.7,0.2,1,0.2c0.7,0.2,1.4,0.3,2.2,0.4c0.3,0,0.6,0.1,0.9,0.2c1,0.2,2.1,0.3,3.1,0.4c0.1,0,0.2,0,0.3,0
		c1,0.1,1.9,0.2,2.9,0.2c0.3,0,0.7,0,1,0c0.4,0,0.8,0,1.2,0c0.3,0,0.6,0,0.9,0c0.4,0,0.9,0,1.3,0c0.7,0,1.4-0.1,2.1-0.1
		c0.4,0,0.9-0.1,1.3-0.1c0.8-0.1,1.5-0.2,2.3-0.3c0.4,0,0.7-0.1,1.1-0.2c1.1-0.2,2.3-0.4,3.4-0.6c0.2,0,0.4-0.1,0.5-0.1
		c0,0,0.1,0,0.1,0c0.1,0,0.2,0,0.2,0c0,0,0,0,0,0c0.1,0,0.1,0,0.2,0l0,0c0,0,0.1,0,0.1,0.1c0,0,0,0,0,0c0,0,0,0.1,0,0.2c0,0,0,0,0,0
		c0,0.1,0,0.2,0,0.3c0,0,0,0.1,0,0.1c0,0.1-0.1,0.2-0.1,0.4c0,0,0,0.1,0,0.2c0,0.2-0.1,0.4-0.2,0.6c-0.2,0.7-0.3,1.3-0.5,2
		c0,0.2-0.1,0.4-0.1,0.7c-0.1,0.4-0.1,0.9-0.2,1.3c0,0.3,0,0.5-0.1,0.8c0,0.4-0.1,0.8-0.1,1.1c0,0.3,0,0.5,0,0.8c0,0.3,0,0.7,0,1
		c0,0.3,0,0.5,0.1,0.8c0,0.3,0.1,0.7,0.1,1c0,0.3,0.1,0.5,0.1,0.8c0.1,0.3,0.1,0.6,0.2,0.9c0.1,0.3,0.1,0.5,0.2,0.8
		c0.1,0.3,0.2,0.6,0.3,0.9c0.1,0.2,0.2,0.5,0.3,0.7c0.1,0.3,0.2,0.6,0.4,0.9c0.1,0.2,0.2,0.5,0.3,0.7c0.1,0.3,0.3,0.5,0.4,0.8
		c0.1,0.2,0.3,0.5,0.4,0.7c0.2,0.3,0.4,0.5,0.5,0.8c0.1,0.2,0.3,0.4,0.5,0.7c0.2,0.3,0.4,0.5,0.6,0.8c0.2,0.2,0.3,0.4,0.5,0.6
		c0.2,0.3,0.5,0.5,0.8,0.8c0.2,0.2,0.3,0.3,0.5,0.5c0.4,0.4,0.9,0.8,1.4,1.2c0.2,0.1,0.4,0.3,0.5,0.4c0.3,0.3,0.7,0.5,1,0.8
		c0.2,0.2,0.5,0.3,0.7,0.5c0.3,0.2,0.6,0.4,1,0.6c0.3,0.2,0.6,0.3,0.8,0.5c0.3,0.2,0.7,0.4,1,0.6c0.3,0.2,0.6,0.3,0.9,0.5
		c0.4,0.2,0.7,0.3,1.1,0.5c0.3,0.2,0.7,0.3,1,0.5c0.4,0.2,0.7,0.3,1.1,0.5c0.4,0.1,0.7,0.3,1.1,0.4c0.4,0.2,0.8,0.3,1.2,0.5
		c0.4,0.1,0.7,0.3,1.1,0.4c0.4,0.1,0.9,0.3,1.3,0.4c0.4,0.1,0.8,0.2,1.2,0.3c0.5,0.1,0.9,0.2,1.4,0.4c0.4,0.1,0.8,0.2,1.2,0.3
		c0.5,0.1,1,0.2,1.5,0.3c0.4,0.1,0.8,0.2,1.2,0.3c0.5,0.1,1.1,0.2,1.6,0.3c0.4,0.1,0.8,0.2,1.2,0.2c0.6,0.1,1.2,0.2,1.8,0.3
		c0.4,0.1,0.8,0.1,1.2,0.2c0.8,0.1,1.5,0.2,2.3,0.3c0.3,0,0.5,0.1,0.8,0.1c1,0.1,2.1,0.2,3.2,0.3c0.3,0,0.7,0,1,0.1
		c0.8,0.1,1.5,0.1,2.3,0.2c0.4,0,0.9,0,1.3,0.1c0.7,0,1.4,0.1,2.1,0.1c0.5,0,1,0,1.5,0c0.7,0,1.4,0,2.1,0c0.5,0,1,0,1.6,0
		c0.5,0,0.9,0,1.4,0c0.2,0,0.4,0,0.6,0c1,0,1.9,0,2.9,0c0.5,0,0.9,0,1.4,0c1.5,0,3-0.1,4.5-0.2l4.2-0.2l0.2,4.1c0,0,0,0,0,0
		c0,0.8,0.1,1.5,0.1,2.2c0,0.2,0,0.5,0.1,0.8c0,0.5,0.1,1,0.1,1.5c0,0.3,0.1,0.6,0.1,0.9c0,0.4,0.1,0.9,0.2,1.3
		c0,0.3,0.1,0.6,0.1,0.9c0.1,0.4,0.1,0.8,0.2,1.2c0.1,0.3,0.1,0.6,0.2,0.9c0.1,0.4,0.2,0.8,0.2,1.2c0.1,0.3,0.1,0.6,0.2,0.9
		c0.1,0.4,0.2,0.8,0.3,1.2c0.1,0.3,0.2,0.6,0.2,0.8c0.1,0.4,0.2,0.8,0.3,1.1c0.1,0.3,0.2,0.5,0.2,0.8c0.1,0.4,0.3,0.8,0.4,1.2
		c0.1,0.2,0.2,0.5,0.2,0.7c0.2,0.5,0.4,1.1,0.6,1.6c0.1,0.1,0.1,0.3,0.2,0.4c0.2,0.5,0.4,1,0.7,1.5c0.1,0.2,0.2,0.4,0.3,0.7
		c0.2,0.3,0.3,0.7,0.5,1c0.1,0.2,0.2,0.5,0.4,0.7c0.2,0.3,0.3,0.6,0.5,0.9c0.1,0.2,0.3,0.5,0.4,0.7c0.2,0.3,0.3,0.6,0.5,0.8
		c0.2,0.2,0.3,0.5,0.5,0.7c0.2,0.3,0.4,0.5,0.5,0.8c0.2,0.2,0.3,0.4,0.5,0.7c0.2,0.3,0.4,0.5,0.6,0.8c0.2,0.2,0.3,0.4,0.5,0.6
		c0.2,0.2,0.4,0.5,0.6,0.7c0.2,0.2,0.3,0.4,0.5,0.5c0.2,0.2,0.5,0.5,0.7,0.7c0.2,0.2,0.3,0.3,0.5,0.5c0.3,0.3,0.7,0.7,1.1,1
		c0.1,0.1,0.2,0.2,0.3,0.3c0.3,0.3,0.7,0.6,1,0.9c0.2,0.1,0.3,0.2,0.5,0.4c0.3,0.2,0.5,0.4,0.8,0.6c0.2,0.1,0.4,0.2,0.6,0.4
		c0.3,0.2,0.5,0.3,0.8,0.5c0.2,0.1,0.4,0.2,0.6,0.3c0.3,0.2,0.5,0.3,0.8,0.4c0.2,0.1,0.4,0.2,0.6,0.3c0.3,0.1,0.5,0.3,0.8,0.4
		c0.2,0.1,0.4,0.2,0.6,0.3c0.3,0.1,0.5,0.2,0.8,0.3c0.2,0.1,0.4,0.2,0.6,0.2c0.3,0.1,0.6,0.2,0.9,0.3c0.2,0.1,0.4,0.1,0.6,0.2
		c0.3,0.1,0.7,0.2,1,0.2c0.2,0,0.3,0.1,0.5,0.1c0.5,0.1,1,0.2,1.5,0.2c0,0,0.1,0,0.1,0c0.5,0.1,1,0.1,1.5,0.1c0.2,0,0.3,0,0.5,0
		c0.3,0,0.6,0,0.9,0c0,0,0.1,0,0.1,0c0.8,0,1.5,0,2.3-0.1c0.2,0,0.3,0,0.5-0.1c0.8-0.1,1.6-0.2,2.5-0.4l0,0c0.7-0.2,1.4-0.4,2.1-0.6
		c5-1.7,9.6-5.3,12.3-9.6l1-1.6l1.8,0.1c0.6,0,1.1,0.1,1.7,0.1c0.1,0,0.1,0,0.2,0c0.1,0,0.1,0,0.2,0c0.8,0,1.5,0,2.2-0.1
		c0.1,0,0.2,0,0.3,0c0.7-0.1,1.5-0.2,2.2-0.4c0.1,0,0.1,0,0.2,0c0.7-0.2,1.4-0.4,2.1-0.6c0,0,0.1,0,0.1,0c0.7-0.3,1.4-0.5,2-0.9
		c0,0,0,0,0,0c0.6-0.3,1.3-0.7,1.8-1.1c0,0,0.1,0,0.1-0.1c0.6-0.4,1.1-0.8,1.6-1.2c0,0,0.1-0.1,0.1-0.1c0.5-0.4,1-0.9,1.4-1.4
		C266.3,208.1,266.3,208.1,266.4,208z M282.9,162.8l-0.7,0.7l-0.7,0.7l0.5,1.1c0.5,1,0,1.5-1.5,1.5c-0.9,0-2.2-0.2-3.8-0.5
		c-1.1-0.2-1.7-0.3-2.1-0.3c-0.6,0-0.6,0.3-0.8,1c-2,7-10.2,13.4-19,14.9c-0.6,0.1-1.8,0.2-3.1,0.2c-2.3,0-5-0.1-6.3-0.3
		c-6.4-1.1-8.7-2.7-7.1-4.7c0.3-0.4,0.6-0.5,1.2-0.5c0.7,0,1.8,0.3,3.8,0.8c2.3,0.7,4.7,1,6.9,1c8.1,0,15.6-3.9,19-10.4
		c1.6-3,1.6-2.9-1-4.2c-4.5-2.2-8.5-5.8-8.4-7.4c0.1-1.2,0.6-1.8,1.4-1.8c0.7,0,1.7,0.5,2.8,1.6c4.9,4.8,9.5,6.8,15.6,6.8
		L282.9,162.8z M276.5,126.7c1-1.3,1.5-1.9,1.7-1.9c0.1,0,0,0.3-0.2,0.9c-0.1,0.2,0.4,0.6,1,1c1.6,1,1.6,1,0,2.9
		c-3.9,4.8-7,6.7-11.7,6.7c-1.5,0-3.2-0.2-5.1-0.6c-2.5-0.5-3.4-1.1-3.4-2.3s0.5-1.8,1.9-1.8c0.6,0,1.5,0.1,2.5,0.3
		c1.5,0.3,2.9,0.5,4,0.5C270.8,132.5,273.1,130.9,276.5,126.7z M256.1,110.8c4.5,0,11.4-6.2,11.4-10.2c0-0.4,0-0.6,0.2-0.6
		c0.3,0,0.8,0.2,1.8,0.6l1.7,0.7l-0.2,0.9c-0.4,2.5-3.2,6.7-6,8.9c-2.6,2.1-6.5,3.5-8.8,3.5c-0.8,0-1.4-0.2-1.7-0.5l0,0
		C253.7,113,254.7,110.8,256.1,110.8z M247,111.2c-1.9-6.2-5.5-10.1-10.8-11.8c-3.7-1.2-3.8-2.6-0.3-4.9c2.9-2,3.5-2.8,3.7-4.7
		c0.1-1.7,0.6-2.3,1.9-2.3c3,0,2.6,5.6-0.6,8.3l-1,0.9l1.3,0.8c4.7,2.7,9.8,10.2,9.8,14.4c0,0.9-1,1.5-2,1.5c-0.5,0-0.9-0.2-1.2-0.5
		l0,0C247.6,112.5,247.2,111.8,247,111.2z M235.9,81.2c4.2-1.3,7.2-3.9,9.5-8.2c0.6-1.1,0.9-1.6,1.2-1.6c0.2,0,0.2,0.3,0.2,0.8
		c0,0.5,0.2,0.7,1.4,0.7c0.3,0,1.2-0.1,1.4,0.2c0.3,0.6-0.9,1.9-1.3,2.5c-3.5,5.2-6.9,8.4-12.7,9.7c-0.3,0.1-0.6,0.1-0.7,0.1
		c-0.3,0-0.5-0.1-0.9-0.3C231.7,84,232.6,82.3,235.9,81.2z M204,71.6c14.8-4.8,10-14,8.1-16.8c-0.4-0.6-0.4-1.3-0.1-1.9l0,0
		c0.7-1.2,2.5-1.3,3.2-0.1c0.5,0.9,1.1,1.8,1.5,2.8c4.4,8.9,0.4,15.8-11.4,19.6c-16,5.1-25.4,19.6-23.3,35.8
		c0.5,3.8,0.5,3.7-0.1,4.3c-0.3,0.4-0.8,0.6-1.3,0.6c-0.5,0-1-0.2-1.4-0.6c-1.9-2.1-1.8-14.1,0.3-20.3C183,84.6,193.1,75.1,204,71.6
		z M107,73.4c2.9-1.4,3.1-1.6,4-3c6.2-9.1,17.4-14.7,28.7-14.7c1.5,0,2.9,0.1,4.4,0.3l1.4,0.2c0,0-0.4-0.8-0.5-1
		c-1.4-2.9,1.5-4.6,4-0.7c3.2,5.2,7.2,8.7,12.6,10c1.2,0.3,1.9,0.5,2.3,0.5c0.8,0,0.7-0.6,0.8-2.5c0.1-6.2,2.4-12.7,4.5-12.7
		c1.8,0,2.1,1.3,1,4.5c-3.1,9.3-1.9,15.2,3.8,18.2l1.5,0.8l2.5-2.1c6.6-5.5,10.2-10.3,11.8-16c0.6-2,2-3.2,3-3.2
		c0.7,0,1.2,0.6,1.2,1.8c0,6.6-6.2,14.7-18.8,24.5c-11.4,8.8-12.9,13.4-7.1,21c1.9,2.5,1.7,3.2-1.2,4.9c-4.5,2.7-7.1,7.1-7.6,13
		c-0.2,2-0.9,3-1.8,3c-0.4,0-0.9-0.2-1.4-0.6l0,0c-3-2.4,2-14.2,7.7-18.1l0.7-0.5l-1-1.5c-0.5-0.8-1.1-1.9-1.3-2.3
		c-0.5-1.2-2.3-1.8-4.5-1.8c-3,0-6.9,1.2-9.2,3.2c-1,0.9-1.9,1.2-2.6,1.2c-1.6,0-2.3-1.8-0.2-3.8c2.9-2.8,6.9-4.4,11.1-4.4
		c1,0,2,0.1,3,0.2l0.8,0.1l0.1-1.8c0.3-4.1,2.9-7.6,9.4-12.8c2-1.6,2-1.5,0.6-2.3c-1.5-0.9-3.8-3.4-4.5-4.8
		c-0.3-0.6-0.6-1.2-0.6-1.2c0,0-1-0.2-2.2-0.3c-5.2-0.7-9.6-2.8-13.2-6.2c-2.4-2.3-6-3.3-10.2-3.3c-7.6,0-16.9,3.5-22.8,9.6
		c-2.4,2.5-2.4,2.4,0.2,2.5c7.1,0.5,14.4,5,17.4,11c1,2,0.3,3.2-0.9,3.2c-0.9,0-1.9-0.6-2.8-2c-3.4-5.4-9.1-8.4-16.1-8.4h-3.5
		l-3.2,1.6C96.3,83,91.4,91.3,96,98.2c1.1,1.7,4.1,2.6,7.3,2.6c1.9,0,3.9-0.3,5.5-1.1c0.8-0.4,1.6-0.6,2.3-0.6c1.6,0,2.4,1,1.6,2.6
		c-1.1,2-4.2,2.9-7.6,2.9c-5.1,0-11-1.9-12.7-5.2C87.3,89.9,92.6,80.4,107,73.4z M88.3,109.6c-2.5-2.4-2.3-4.5-0.7-4.5
		c0.8,0,1.8,0.5,3,1.6c4.6,4.2,10.5,6.3,17.2,6.3c2.1,0,4.4-0.2,6.6-0.6c12.5-2.3,15.2-4.4,15.2-11.8v-0.7l-2.3-0.2
		c-9.7-0.7-22.9-8.8-19.1-11.8c0.4-0.3,0.8-0.5,1.1-0.5c0.6,0,1.3,0.5,2.5,1.6c5.2,4.8,11.2,7,16.5,7c7.9,0,14.1-5,14.2-13.9v-2.5
		l-1.5-0.7c-5.5-2.7-12.3-10.9-11.1-13.3c0.4-0.7,0.8-1.1,1.3-1.1c0.8,0,1.9,1,3.2,3c4.1,6.2,9.5,9.5,15.2,9.5
		c1.7,0,3.5-0.3,5.3-0.9c0.8-0.3,1.5-0.4,2.1-0.4c1.1,0,1.6,0.6,1.6,1.8c0,1.9-3.8,3.3-9,3.3c-0.2,0-0.3,0-0.5,0l-2.8,0l-0.1,2.5
		c-0.3,7.7-4,13.1-10.8,15.4l-2.1,0.7l-0.1,2.1c-0.2,3.5-1.2,6.5-2.9,8.6l-0.6,0.8l1,1c3.3,3.2,5.7,7.3,6,10.1
		c0.2,2.7-0.9,4.7-2.3,4.7c-0.4,0-0.9-0.2-1.4-0.7l0,0c-0.5-0.5-0.6-0.8-0.5-1.5c0.1-0.5,0.2-1.3,0.3-1.7c0.3-1.8-1.2-4.5-4.2-7.5
		l-2-2l-1.1,0.5c-1.3,0.5-9.6,2.4-13,2.8c-1.9,0.3-3.7,0.4-5.5,0.4C99.8,116.8,93.4,114.4,88.3,109.6z M136.6,144.5
		c-1.5,2.8-2.8,4.7-3.2,4.7c-0.1,0-0.1-0.3,0.1-1l0,0c0.3-1,0.5-1.3-0.1-1.3c-0.3,0-0.7,0.1-1.3,0.2c-0.6,0.1-1,0.2-1.2,0.2
		c-0.6,0-0.2-0.5,0.9-2.5c0.8-1.3,1.4-2.5,1.4-2.5s-0.8-0.2-1.7-0.3c-4.9-0.5-10.9-3.6-15.9-8.3l-1.8-1.7l-1.9,0.6
		c-2.8,0.9-5.7,1.3-8.5,1.3c-7.3,0-13.8-2.7-13.8-6.8c0-1.2,0.6-1.9,1.4-1.9c0.7,0,1.7,0.5,2.6,1.5c2.4,2.4,5.9,3.6,9.8,3.6
		c3,0,6.2-0.7,9.4-2.1c0.6-0.3,1-0.4,1.4-0.4c0.8,0,1.5,0.7,3.4,2.5c5.6,5.4,10.8,8,16.5,8.1l2.2,0l1.1-1c1.6-1.5,3.3-2.6,5.7-3.7
		l2.1-1l-0.7-1.3c-3.2-5.7-2.4-16.4,1.9-25.7c0.9-1.9,1.8-2.7,2.5-2.7c1.2,0,1.8,2.2,0.5,5.3c-3.7,9.5-4.2,17.2-1.4,21.5l0.8,1.2
		l2.4-0.1c24.3-0.6,47.1-6.3,46.1-11.6c-2.1-11.3,1.4-20.7,8.9-23.4c7.7-2.8,13.1-8,15.3-14.9c0.6-1.8,0.7-1.7,2.4-2.5
		c5.7-2.6,4.7-12.6,4-16.9c-0.2-1,0.6-2,1.7-2.1l0,0c0.9,0,1.7,0.6,1.9,1.5l0.1,0.8c1.9,11-0.3,17.8-5.3,19.9
		c-1,0.4-1.1,0.6-1.9,2.4c-2.7,6.7-8.7,12.3-15.8,15c-4.5,1.7-6.3,3.6-7.3,8c-0.8,3.2-0.7,11.7,0.1,12.5c0.7,0.7,4.5,1.2,7.8,1.2
		c1.5,0,2.8-0.1,3.7-0.3c5.5-1.4,9.6-5.6,11.4-11.8c0.6-2,2-3.1,3-3.1c0.7,0,1.3,0.5,1.3,1.8c0,9.6-9.9,17.4-20.7,17.4
		c-1.6,0-3.2-0.2-4.8-0.5l-2.6-0.6l-1.3,1.1c-2.8,2.4-6.9,4.4-11.8,5.6c-4.8,1.2-8.6,1.7-22.8,3.1
		C146.6,135,140.3,137.5,136.6,144.5z M158.1,155.1l-4.2,0.2l-0.9,2.1c-2.1,5.2-6.7,9.8-9.4,9.8c-0.3,0-0.6-0.1-0.9-0.2
		c-1.6-0.8-1.2-2.4,0.9-3.8c3-1.9,4.9-4.5,6.2-8.5c0.5-1.6,1.4-2.8,1.4-2.8s2.1-0.5,5.5-0.5c9.6-0.2,15.1-2.3,21.7-8.3
		c1-0.9,1.9-1.7,2-1.7s1.3,0.2,2.7,0.5c8.5,1.8,15.9,2.6,22.3,2.6c11.3,0,19.9-2.7,26.9-8.3l2.3-1.8l3-0.6c6.6-1.2,9.7-2.9,12.1-6.6
		c1-1.4,2-2.1,2.8-2.1c1.3,0,1.9,1.6,0.5,4c-2.6,4.5-8,7.5-15.4,8.5c-0.9,0.1-1.6,0.5-2.8,1.5c-7.7,6.2-16.9,9.2-29.2,9.2
		c-5.8,0-12.3-0.7-19.7-2l-4.5-0.8l-1.5,1.3C173.8,152.2,167.1,154.8,158.1,155.1z M217.4,171.2c-7,0-14.2-1.7-21.3-5l-3-1.4
		l-2.6,2.3c-7.5,6.8-14.8,10.2-21.6,10.2c-1.8,0-3.5-0.2-5.2-0.7c-2.4-0.6-3.3-1.3-3.3-2.4c0-1.2,0.5-1.7,1.7-1.7
		c0.7,0,1.7,0.2,2.9,0.5c1.1,0.3,2.4,0.5,3.6,0.5c5.7,0,12.6-3.2,18.8-8.8c2.1-1.9,2.1-1.9,0.8-2.6c-2.1-1.2-1.8-3.8,0.5-3.8
		c0.3,0,1.6,0.6,2.9,1.4c8.7,5.2,17.5,7.8,25.8,7.8c7.8,0,15.3-2.3,22.2-6.9c6-4,11.9-11.2,11.5-14.1c-0.2-1.5,0.7-2.3,1.7-2.3
		c0.8,0,1.7,0.6,2,1.8c0.9,3.4-3.5,10.2-9.9,15.5C236.8,167.9,227.3,171.2,217.4,171.2z M248.2,211.8c-0.2,0-0.5,0-0.9,0
		c-0.4,0-0.7-0.1-1-0.1c-0.6,0-0.8,0.2-1.1,0.8c-0.6,1-0.8,1-5.3,1.1c-0.2,0-0.3,0-0.5,0c-1.8,0-3.7-0.1-5-0.3
		c-8.8-1.5-18.7-11.2-15.3-15.1c0.3-0.3,0.7-0.5,1.1-0.5c0.9,0,1.9,0.6,2.1,1.6c1.3,6.1,8.8,10.5,17.8,10.5c0.3,0,0.6,0,1,0l1.9-0.1
		c1.2,0,2.4,0.2,3.5,0.8l0,0C248.6,211.5,249,211.8,248.2,211.8z M261.4,190.4c-6.6,4.6-13.5,7-19.7,7c-1.8,0-3.6-0.2-5.3-0.7
		c-5.2-1.4-8.7-4.8-6.8-6.6c0.4-0.4,0.8-0.6,1.2-0.6c0.5,0,1.1,0.3,1.8,0.9c2.6,2.2,5.8,3.2,9.3,3.2c5.8,0,12.7-2.8,20.1-8.3l1-0.8
		c1.1-0.8,2.5-1.1,3.8-0.8l0.5,0.1c4.3,1,4.6,1.2,1.5,1.3c-2.8,0-2.7,0-2.2,1.3c0.1,0.3-0.2,0.6-0.9,1
		C265.1,187.9,263.2,189.2,261.4,190.4z"/>
	<path d="M278.2,240.9c30.8-44.7,38.2-61.3,38.3-85.1c0.1-44.6-38.1-98.6-82.4-116.4c-46.6-18.7-110.1-15.7-147.6,7.1
		c-2,1.2-4.3,2.6-5.3,3.2C66.1,59,47.6,80.2,39.2,98.1c-10.4,22.1-12.6,51.6-5.2,68.6c6.7,15.3,6.3,19.2-3.4,36.9
		c-18.2,33.2-18.5,40.6-1.8,42.8c2.8,0.4,4,0.8,5,1.8l1.3,1.3v10.7c0,12.2,0.1,12.4,4.9,14.5c3,1.4,3.5,2.3,2.2,5.1
		c-2,4.4-1.2,7.9,3.4,14.8c3.9,5.8,4.4,8,3.5,13.7c-4,24.8,8.6,31.7,47.7,26.2c15.3-2.2,24.3-0.4,31.3,6.2
		c3,2.9,10.3,16.5,20.2,37.7c2.1,4.5,4.4,9.3,5.1,10.8c1.1,2.1,4.7,11.2,6.1,15.1l0,0c0.8,2.3,2.8,1.1,5.6-3.7
		c26.2-42.8,62.2-76.5,92.6-86.8c7.6-2.6,7.2-2.3,6.5-4c-2.1-5.4-3.3-19.7-2.3-27.2C263.6,268.4,269.3,253.9,278.2,240.9z
		 M251.8,217.2c-0.7,0-1.4,0-2.1-0.1l0,0.1c-3.5,5.6-9.8,10.1-16.3,11.5c-2,0.5-4.1,0.7-6.1,0.7c-17.9,0-31.6-17.8-32.5-42.3l0-1.1
		l-1.2,0.1c-3.3,0.2-6.5,0.2-9.5,0.2c-26,0-43.9-5.5-51.8-15.9c-3.9-5.2-5.3-11.5-4-18.4c-3.3,0.5-6.6,0.8-9.9,0.8
		c-16.1,0-30.4-6.4-38.2-17.2l-0.1-0.1c-0.7,0.1-1.4,0.1-2,0.1c-8.3,0-15.5-5.5-17.5-13.4c-1.6-6.6,1.1-12.8,7.1-16.1V106
		c0-10.8,4.4-18.4,12.3-21.4l0.8-0.3l0.1-0.4c2.8-9.8,8.9-15.1,19.2-16.6l0.5-0.1c0.1,0,0.3,0,0.4-0.1c0-0.1,0.1-0.2,0.1-0.3
		l0.2-0.5c5.2-11.9,14.9-18.5,28.1-18.9l3.2-0.1l0.7-0.5c6.4-4.3,13.5-6.6,20.8-6.6c2.8,0,5.6,0.3,8.5,1l0.8,0.2l1.2-0.5
		c4.8-2.1,9.3-3.1,13.2-3.1c4.3,0,8.2,1.2,11.5,3.7l0,0c3.8-1.9,7.3-2.8,10.6-2.8c5.2,0,9.6,2.5,12.3,7c2.2-0.5,4.3-0.7,6.2-0.7
		c7,0,11.7,3.2,13.4,9c0.5,0,1,0,1.5,0c8.6,0,14.6,4.8,16.8,13.5l0,0.2c0,0.2,0.1,0.3,0.1,0.5c12.7,0.6,20.8,10.1,20.9,24.5l0,3.3
		l0.4,0.2c12.4,5.2,16.8,15.1,12.5,28l-0.2,0.6c5.1,3.5,8.6,9.4,9.7,16.5c1.3,8.5-0.9,17.3-6,23.7c2.6,5.7,2.1,12.2-1.2,17.5
		c-3.1,4.8-8.1,7.8-13.6,8.3c1.7,6.2,0.8,12.3-2.5,17.4C266.3,213.9,259.6,217.2,251.8,217.2z"/>
</g>
</svg>
