<?xml version="1.0" encoding="utf-8"?>
<!-- Generator: Adobe Illustrator 26.5.0, SVG Export Plug-In . SVG Version: 6.00 Build 0)  -->
<svg version="1.1" id="Layer_1" xmlns="http://www.w3.org/2000/svg" xmlns:xlink="http://www.w3.org/1999/xlink" x="0px" y="0px"
	 viewBox="0 0 140.6 194" style="enable-background:new 0 0 140.6 194;" xml:space="preserve">
<style type="text/css">
	.st0{fill:#F9B34A;stroke:#000000;stroke-width:8;stroke-linejoin:round;stroke-miterlimit:10;}
	.st1{fill:#7C6246;}
	.st2{fill:#4F3E29;}
	.st3{fill:#FDB813;stroke:#000000;stroke-miterlimit:10;}
	.st4{fill:#EF3A25;stroke:#000000;stroke-miterlimit:10;}
	.st5{fill:#FFFFFF;}
	.st6{fill:#FEFEFF;}
</style>
<g>
	<path class="st0" d="M121.9,142.1l-6.5-1.4c6.6-7.2,10.8-16.3,11.8-26.6c1-10.2,1.5-28.2-2.8-48.5c-1.7-7.7,3.4-18.5,3.4-18.5
		c-9.9,4-13.7,13.6-14.2,16.9c-1.2,7.8-6.8,15.7-6.8,15.7C111.7,55.5,94.2,47,83,38.8c-12-8.9-4.7-29.3-4.7-29.3
		c-10.3,4-15.6,13.4-16.5,20.2c-1.1,8.3-6.8,12.6-14.6,23C37.2,66,38.5,81,38.5,81c-7.4-12.6-21.6-15.2-21.6-15.2
		c3.7,4.3,8,12.1,6.5,22.8c-1.5,10.6-3.7,19.2-3.3,25.5c0,9.5,3.8,18.3,10.2,25.4l-12,2.7c-5.5,0.4-9.7,6.2-9.2,13.2
		s5.3,12.3,10.8,11.9c1.9-0.1,3.6-0.9,5-2.1l27.2-11.4c1,0.4,2,0.7,3,1l-5,9.6c-3.3,4.5-1.4,11.4,4.2,15.6
		c5.6,4.1,12.8,3.8,16.1-0.6c1.1-1.5,1.6-3.3,1.6-5.2l5.2-16.8c0.4,0,0.7-0.1,1.1-0.1c4.6-0.3,9-1,13.1-2.2l24,10.1
		c1.4,1.2,3.2,2,5,2.1c5.5,0.4,10.4-5,10.8-11.9S127.4,142.4,121.9,142.1z"/>
	<g>
		<polygon class="st1" points="18.3,142.1 60,132.8 66.1,147.8 19.9,167.2 		"/>
		
			<ellipse transform="matrix(0.998 -6.300090e-02 6.300090e-02 0.998 -9.7043 1.5115)" class="st1" cx="19.1" cy="154.6" rx="10.1" ry="12.6"/>
		<path class="st2" d="M20.1,166c-1.5,0-3.1-0.6-4.5-1.7c-1.1-0.9-2.1-2.1-3-3.8c-1.5-2.7-3-6.8-1.7-10.8c1.2-3.6,5.2-6.8,9.4-5.9
			c0.5,0.1,0.9,0.6,0.8,1.2c-0.1,0.5-0.6,0.9-1.2,0.8c-3.1-0.7-6.2,1.8-7.1,4.5c-1.1,3.3,0.2,6.8,1.5,9.2c0.8,1.5,1.6,2.5,2.5,3.2
			c1.1,0.9,2.4,1.3,3.6,1.2c1.1-0.1,2.3-0.8,3.2-1.8c0.7-0.9,1.3-2,1.8-3.6c0.2-0.5,0.7-0.8,1.2-0.7s0.8,0.7,0.7,1.2
			c-0.6,1.8-1.2,3.2-2.2,4.2c-1.2,1.4-2.9,2.3-4.5,2.5C20.5,166,20.3,166,20.1,166z"/>
		<path class="st2" d="M21.4,160.2c-1,0-2-0.5-2.8-1.5c-0.8-0.9-1.1-2.4-1.2-3c-0.1-0.8,0.2-1.6,0.9-2c0.8-0.5,1.8-0.6,2.6-0.2
			c0.8,0.4,1.3,1.2,1.4,2.2c0,0.6-0.4,1-0.9,1.1c-0.5,0-1-0.4-1.1-0.9c0-0.4-0.2-0.4-0.3-0.5c-0.2-0.1-0.5-0.1-0.6,0
			c-0.1,0-0.1,0.1-0.1,0.2c0.1,0.6,0.4,1.5,0.7,1.9c0.2,0.2,0.9,0.9,1.5,0.8c0.4-0.1,0.5-0.2,0.7-0.6c0.2-0.2,0.4-0.6,0.8-0.9
			c0.1-0.1,0.4-0.3,0.7-0.5c0.2-0.1,0.4-0.3,0.6-0.4c0.7-0.5,0.9-1.1,0.9-2.3c0-1.4-0.5-2.8-1.2-3.8c-0.8-1-1.9-1.7-3-1.8
			c-0.6,0-1.3,0.1-2,0.4c-0.9,0.3-1.5,0.8-1.7,1.3c-0.2,0.5-0.8,0.7-1.3,0.5s-0.7-0.8-0.5-1.3c0.5-1.1,1.4-1.9,2.8-2.4
			c1-0.4,2-0.5,2.9-0.5c1.7,0.1,3.4,1.1,4.5,2.6c1,1.3,1.5,3.1,1.6,4.9c0,1.3-0.1,2.7-1.6,3.9c-0.1,0.1-0.4,0.3-0.7,0.5
			c-0.2,0.2-0.5,0.3-0.6,0.4c-0.2,0.1-0.3,0.3-0.4,0.5c-0.3,0.5-0.8,1.1-1.9,1.3C21.8,160.2,21.6,160.2,21.4,160.2z"/>
		<path class="st2" d="M20.2,162.9c-0.7,0-1.4-0.2-2-0.6c-1.1-0.7-1.8-1.3-2.3-2.4c-0.4-0.8-1-2.6-1.2-3.4c-0.4-1.8,0.2-3.4,0.8-4.4
			c0.6-0.9,1.4-1.5,2.7-2.1c1-0.5,3.1-0.8,4.4,0c0.6,0.4,1.2,1.1,1.3,2.5c0,0.6-0.4,1-1,1c-0.6,0-1-0.4-1-1c0-0.6-0.2-0.8-0.3-0.8
			c-0.6-0.4-1.9-0.2-2.5,0.1c-0.9,0.4-1.5,0.8-1.9,1.4c-0.1,0.1-0.8,1.3-0.5,2.8c0.2,0.7,0.7,2.3,1,2.9c0.4,0.7,0.8,1.1,1.6,1.6
			c0.4,0.3,1,0.3,1.5,0.2c0.5-0.1,1.1,0.2,1.2,0.7c0.1,0.5-0.2,1.1-0.7,1.2C20.9,162.8,20.6,162.9,20.2,162.9z"/>
	</g>
	<g>
		<polygon class="st1" points="50.1,164.3 69.8,126.4 85.2,131.4 70.3,179.2 		"/>
		
			<ellipse transform="matrix(0.5935 -0.8048 0.8048 0.5935 -113.7872 118.2737)" class="st1" cx="60.2" cy="171.8" rx="10.1" ry="12.6"/>
		<path class="st2" d="M69.5,178.3c-1,1.2-2.5,2-4.2,2.4c-1.4,0.3-3,0.2-4.9-0.1c-3-0.6-7.1-2.1-9.3-5.6c-2-3.2-1.8-8.4,1.6-11
			c0.4-0.3,1.1-0.3,1.4,0.2c0.3,0.4,0.2,1.1-0.2,1.4c-2.5,1.9-2.6,5.9-1.1,8.3c1.9,3,5.4,4.2,8,4.8c1.7,0.3,3,0.4,4.1,0.1
			c1.4-0.3,2.6-1,3.2-2c0.7-0.9,0.9-2.3,0.7-3.6c-0.2-1.1-0.7-2.3-1.6-3.6c-0.3-0.5-0.2-1.1,0.3-1.4c0.5-0.3,1.1-0.2,1.4,0.3
			c1,1.6,1.6,3,1.9,4.4c0.3,1.8-0.1,3.7-1,5.1C69.8,178.1,69.7,178.2,69.5,178.3z"/>
		<path class="st2" d="M66,173.6c-0.6,0.8-1.7,1.2-3,1.2c-1.2,0-2.5-0.7-3.1-1c-0.7-0.5-1-1.2-1-2c0.1-0.9,0.7-1.8,1.5-2.1
			c0.8-0.4,1.8-0.3,2.5,0.3c0.4,0.3,0.5,0.9,0.2,1.4c-0.3,0.4-1,0.5-1.4,0.2c-0.3-0.2-0.5-0.1-0.5-0.1c-0.2,0.1-0.3,0.3-0.3,0.5
			c0,0.1,0,0.1,0.1,0.2c0.5,0.3,1.4,0.7,1.9,0.7c0.3,0,1.2-0.1,1.5-0.6c0.2-0.4,0.2-0.5,0-0.9c-0.1-0.3-0.2-0.7-0.2-1.1
			c0-0.2,0-0.5,0.1-0.9c0-0.3,0.1-0.5,0.1-0.7c0-0.9-0.3-1.4-1.2-2.1c-1.1-0.9-2.4-1.4-3.7-1.5c-1.3-0.1-2.5,0.4-3.3,1.1
			c-0.4,0.4-0.8,1-1,1.8c-0.3,0.9-0.3,1.6-0.1,2.2c0.2,0.5,0,1.1-0.5,1.3c-0.5,0.2-1.1,0-1.3-0.5c-0.5-1-0.5-2.3,0-3.7
			c0.4-1,0.9-1.9,1.5-2.5c1.2-1.2,3-1.9,4.9-1.8c1.7,0.1,3.4,0.8,4.8,1.9c1,0.8,2,1.8,1.9,3.7c0,0.2,0,0.5-0.1,0.8
			c0,0.3-0.1,0.6-0.1,0.7c0,0.2,0,0.4,0.1,0.6c0.1,0.6,0.3,1.3-0.2,2.4C66.2,173.3,66.1,173.5,66,173.6z"/>
		<path class="st2" d="M67.2,176.2c-0.5,0.6-1,0.9-1.7,1.2c-1.3,0.4-2.2,0.5-3.3,0.2c-0.9-0.2-2.6-0.9-3.4-1.3
			c-1.6-0.9-2.5-2.3-2.8-3.4c-0.3-1-0.2-2.1,0.2-3.4c0.3-1.1,1.3-2.9,2.9-3.4c0.6-0.2,1.6-0.3,2.7,0.6c0.4,0.4,0.5,1,0.2,1.4
			c-0.4,0.4-1,0.5-1.4,0.1c-0.5-0.4-0.7-0.3-0.8-0.3c-0.7,0.2-1.3,1.3-1.5,2c-0.3,1-0.3,1.7-0.2,2.3c0,0.1,0.5,1.5,1.8,2.2
			c0.7,0.4,2.2,0.9,2.8,1.1c0.8,0.2,1.4,0.1,2.3-0.2c0.5-0.2,0.9-0.5,1.1-1.1c0.2-0.5,0.8-0.7,1.3-0.4c0.5,0.2,0.7,0.9,0.4,1.3
			C67.6,175.7,67.4,175.9,67.2,176.2z"/>
	</g>
	<g>
		<polygon class="st1" points="121.9,142.1 80.2,132.8 74.2,147.8 120.3,167.2 		"/>
		
			<ellipse transform="matrix(6.300052e-02 -0.998 0.998 6.300052e-02 -40.8603 265.7775)" class="st1" cx="121.1" cy="154.6" rx="12.6" ry="10.1"/>
		<path class="st2" d="M120.1,166c1.5,0,3.1-0.6,4.5-1.7c1.1-0.9,2.1-2.1,3-3.8c1.5-2.7,3-6.8,1.7-10.8c-1.2-3.6-5.2-6.8-9.4-5.9
			c-0.5,0.1-0.9,0.6-0.8,1.2c0.1,0.5,0.7,0.9,1.2,0.8c3.1-0.7,6.2,1.8,7.1,4.5c1.1,3.3-0.2,6.8-1.5,9.2c-0.8,1.5-1.6,2.5-2.5,3.2
			c-1.1,0.9-2.4,1.3-3.6,1.2c-1.2-0.1-2.3-0.8-3.2-1.8c-0.7-0.9-1.3-2-1.8-3.6c-0.2-0.5-0.7-0.8-1.2-0.7s-0.8,0.7-0.7,1.2
			c0.6,1.8,1.2,3.2,2.2,4.2c1.2,1.4,2.9,2.3,4.5,2.5C119.8,166,119.9,166,120.1,166z"/>
		<path class="st2" d="M118.8,160.2c1,0,2-0.5,2.8-1.5c0.8-0.9,1.1-2.4,1.2-3c0.1-0.8-0.2-1.6-0.9-2c-0.8-0.5-1.8-0.6-2.6-0.2
			c-0.8,0.4-1.3,1.2-1.4,2.2c0,0.6,0.4,1,0.9,1.1s1-0.4,1.1-0.9c0-0.4,0.2-0.4,0.3-0.5c0.2-0.1,0.5-0.1,0.6,0c0.1,0,0.1,0.1,0.1,0.2
			c-0.1,0.6-0.4,1.5-0.7,1.9c-0.2,0.2-0.8,0.9-1.5,0.8c-0.4-0.1-0.5-0.2-0.7-0.6c-0.2-0.2-0.4-0.6-0.8-0.9c-0.2-0.1-0.4-0.3-0.7-0.5
			c-0.2-0.1-0.4-0.3-0.6-0.4c-0.7-0.5-0.9-1.1-0.8-2.3c0-1.4,0.5-2.8,1.2-3.8c0.8-1,1.9-1.7,3-1.8c0.6,0,1.3,0.1,2,0.4
			c0.9,0.3,1.5,0.8,1.7,1.3c0.2,0.5,0.8,0.7,1.3,0.5s0.7-0.8,0.5-1.3c-0.5-1.1-1.4-1.9-2.8-2.4c-1-0.4-2-0.5-2.9-0.5
			c-1.7,0.1-3.4,1.1-4.5,2.6c-1,1.3-1.6,3.1-1.6,4.9c0,1.3,0.1,2.7,1.6,3.9c0.2,0.1,0.4,0.3,0.7,0.5c0.2,0.2,0.5,0.3,0.6,0.4
			c0.2,0.1,0.3,0.3,0.4,0.5c0.3,0.5,0.8,1.1,1.9,1.3C118.4,160.2,118.6,160.2,118.8,160.2z"/>
		<path class="st2" d="M120,162.9c0.7,0,1.4-0.2,2-0.6c1.1-0.7,1.8-1.3,2.3-2.4c0.4-0.8,1-2.6,1.2-3.4c0.4-1.8-0.2-3.4-0.8-4.4
			c-0.6-0.9-1.4-1.5-2.7-2.1c-1-0.5-3.1-0.8-4.4,0c-0.6,0.4-1.2,1.1-1.3,2.5c0,0.6,0.4,1,1,1c0.6,0,1-0.4,1-1c0-0.6,0.2-0.8,0.3-0.8
			c0.6-0.4,1.9-0.2,2.6,0.1c0.9,0.4,1.5,0.8,1.9,1.4c0.1,0.1,0.8,1.3,0.5,2.8c-0.2,0.7-0.7,2.3-1,2.9c-0.4,0.7-0.8,1.1-1.6,1.6
			c-0.4,0.3-0.9,0.3-1.5,0.2c-0.5-0.1-1.1,0.2-1.2,0.7c-0.1,0.5,0.2,1.1,0.7,1.2C119.3,162.8,119.7,162.9,120,162.9z"/>
	</g>
	<path class="st3" d="M124.4,65.6c-1.7-7.7,3.4-18.5,3.4-18.5c-9.9,4-13.7,13.6-14.2,16.9c-1.2,7.8-6.8,15.7-6.8,15.7
		c4.9-24.3-12.6-32.7-23.8-41c-12-8.9-4.7-29.3-4.7-29.3c-10.3,4-15.6,13.4-16.5,20.2c-1.1,8.3-6.8,12.6-14.6,23
		C37.2,66,38.5,81,38.5,81c-7.4-12.6-21.6-15.2-21.6-15.2c3.7,4.3,8,12.1,6.5,22.8c-1.5,10.6-3.7,19.2-3.3,25.5
		c0,23.9,24,43.3,53.5,43.3c29.6,0,51.1-18.1,53.5-43.3C128.1,103.9,128.7,85.8,124.4,65.6z"/>
	<path class="st4" d="M31.7,95.7c1.4-4.6-2.8-11-2.8-11c8.1,2.4,10.9,8.2,11.7,10.1c2,4.4,5.6,9.3,5.6,9.3
		C42.2,89.7,53.3,75.5,61,68.9c8.6-7.3,6.4-25.3,6.4-25.3c8.5,2.4,15.2,17.7,16.9,21.5c1.7,3.7,2.8,8.1,13.3,17.8
		c8.4,7.8,4.8,22,4.8,22c6.1-7.5,17.8-9,17.8-9c-3.1,2.6-6.6,7.2-5.3,13.5c1.3,6.3,3.1,11.4,2.7,15.2c0,14.2-19.8,32.8-44.1,32.8
		s-42.2-17.9-44.1-32.8C28.6,118.5,28.2,107.8,31.7,95.7z"/>
	<g>
		<g>
			<g>
				<g>
					<path d="M61.5,123c0,4.6-3.5,8.3-7.8,8.3s-7.8-3.7-7.8-8.3s3.5-8.3,7.8-8.3C58,114.7,61.5,118.4,61.5,123z"/>
					<path class="st5" d="M47.6,121.4c0-2.4,1.8-4.3,4-4.3s4,1.9,4,4.3s-1.8,4.3-4,4.3C49.4,125.7,47.6,123.8,47.6,121.4z"/>
					<path class="st5" d="M54.5,127.1c0-1.1,0.9-2.1,1.9-2.1c1.1,0,1.9,0.9,1.9,2.1c0,1.1-0.9,2.1-1.9,2.1S54.5,128.2,54.5,127.1z"
						/>
				</g>
				<g>
					<path d="M102.1,123c0,4.6-3.5,8.3-7.8,8.3s-7.8-3.7-7.8-8.3s3.5-8.3,7.8-8.3C98.6,114.7,102.1,118.4,102.1,123z"/>
					<path class="st5" d="M88.2,121.4c0-2.4,1.8-4.3,4-4.3s4,1.9,4,4.3s-1.8,4.3-4,4.3S88.2,123.8,88.2,121.4z"/>
					<path class="st5" d="M95.1,127.1c0-1.1,0.9-2.1,1.9-2.1c1.1,0,1.9,0.9,1.9,2.1c0,1.1-0.9,2.1-1.9,2.1
						C95.9,129.2,95.1,128.2,95.1,127.1z"/>
				</g>
			</g>
			<path class="st6" d="M51.7,133.6c0,2.2-2.6,3.9-5.8,3.9s-5.8-1.8-5.8-3.9s2.6-3.9,5.8-3.9C49.1,129.6,51.7,131.4,51.7,133.6z"/>
			<path class="st6" d="M107.9,133.6c0,2.2-2.6,3.9-5.8,3.9c-3.2,0-5.8-1.8-5.8-3.9s2.6-3.9,5.8-3.9
				C105.3,129.6,107.9,131.4,107.9,133.6z"/>
		</g>
		<path d="M74,142.4c-4.4,0-7.9-3.8-7.9-8.4c0-0.8,0.7-1.5,1.5-1.5s1.5,0.7,1.5,1.5c0,3,2.2,5.4,4.9,5.4s4.9-2.4,4.9-5.4
			c0-0.8,0.7-1.5,1.5-1.5s1.5,0.7,1.5,1.5C81.9,138.7,78.3,142.4,74,142.4z"/>
	</g>
</g>
</svg>
