<svg id="Group_44" data-name="Group 44" xmlns="http://www.w3.org/2000/svg" width="46.539" height="33.349" viewBox="0 0 46.539 33.349">
  <g id="trees" transform="translate(0 0)">
    <path id="Path_35" data-name="Path 35" d="M379.2,84.464l-.276,9.621c0,.227.944.423,2.1.423s2.1-.179,2.1-.423v-9.54Z" transform="translate(-347.924 -62.507)" fill="#527579"/>
    <path id="Path_36" data-name="Path 36" d="M370.084,44.8a.252.252,0,0,1-.026-.356.259.259,0,0,1,.059-.05c.682-.39,1.153-.894.5-1.316a19.76,19.76,0,0,0-2.194-1.105.252.252,0,0,1-.032-.423l1.137-.731a.236.236,0,0,0,.071-.326.238.238,0,0,0-.087-.08l-1.869-1.073a.237.237,0,0,1-.082-.324h0l.682-1.251a.261.261,0,0,0-.1-.341l-1.593-.845a.245.245,0,0,1-.1-.332l.016-.026.731-1.056a.238.238,0,0,0-.052-.332l-.013-.009-2.536-1.69a.245.245,0,0,1-.062-.34l.013-.017.748-.861a.261.261,0,0,0-.041-.368l-.008-.006-1.885-1.17a.251.251,0,0,1-.049-.374,2.854,2.854,0,0,0,.569-1.2.253.253,0,0,0-.114-.276l-1.852-.944a.238.238,0,0,1-.049-.39c.146-.13.276-.26.374-.358a.241.241,0,0,0,0-.341l-.018-.016c-.536-.406-1.268-.975-1.69-1.284a.252.252,0,0,1,.016-.406h.016a.236.236,0,0,0-.065-.423c-1.235-.341-2.714-2.5-2.714-2.5s-1.463,2.145-2.714,2.5a.237.237,0,0,0-.065.423h.016a.251.251,0,0,1,.07.348.238.238,0,0,1-.054.058c-.422.309-1.153.861-1.69,1.284a.23.23,0,0,0-.049.322.214.214,0,0,0,.033.036c.1.1.245.245.374.358a.236.236,0,0,1,.024.333.231.231,0,0,1-.073.057l-1.852.959a.233.233,0,0,0-.114.276,2.671,2.671,0,0,0,.569,1.2.249.249,0,0,1-.02.352.254.254,0,0,1-.029.022l-1.885,1.17a.249.249,0,0,0-.071.345.222.222,0,0,0,.022.029l.747.861a.241.241,0,0,1-.026.34l-.023.017-2.535,1.69a.238.238,0,0,0-.074.328l.009.013.731,1.056a.247.247,0,0,1-.061.345l-.021.013-1.593.846a.257.257,0,0,0-.1.341l.682,1.251a.252.252,0,0,1-.081.325l-1.869,1.073a.244.244,0,0,0-.016.406l1.138.731a.239.239,0,0,1-.033.422,19.82,19.82,0,0,0-2.194,1.105c-.65.423-.179.926.5,1.316a.251.251,0,0,1,.032.406c-.5.406-1.5,1.235-1.56,1.755-.065.5,1.333.341,2.145.2a.236.236,0,0,1,.227.357c-.227.374-.439.878-.227,1.219.245.39,1.268.1,1.95-.146a.228.228,0,0,1,.26.341c-.293.552-.552,1.3.195,1.479.909.228,2.178-.553,2.763-.959a.219.219,0,0,1,.341.179c.033.454.1,1.186.162,1.576.081.5,1.056,0,1.69-.845a.222.222,0,0,1,.39.081c.146.5.406,1.2.812,1.268.5.081.959-.569,1.316-1.186a.219.219,0,0,1,.406.049c.179.618.585,1.576,1.268,1.642a.6.6,0,0,0,.179-.016.656.656,0,0,0,.179.016c.682-.065,1.072-1.008,1.267-1.642a.219.219,0,0,1,.406-.049c.357.618.8,1.267,1.316,1.186.406-.065.682-.764.813-1.268a.222.222,0,0,1,.39-.081c.634.845,1.608,1.365,1.69.845.065-.39.13-1.121.163-1.576a.22.22,0,0,1,.341-.179c.585.406,1.852,1.186,2.763.959.747-.179.5-.944.195-1.479a.23.23,0,0,1,.26-.341c.682.245,1.706.52,1.95.146.21-.341,0-.845-.228-1.219a.234.234,0,0,1,.228-.357c.813.13,2.21.292,2.145-.2C371.579,46.032,370.588,45.2,370.084,44.8Z" transform="translate(-325.174 -21.773)" fill="#77c9d6"/>
    <path id="Path_37" data-name="Path 37" d="M324.225,84.464l-.276,9.621c0,.227.944.423,2.1.423s2.1-.179,2.1-.423v-9.54Z" transform="translate(-312.164 -62.507)" fill="#527579"/>
    <path id="Path_38" data-name="Path 38" d="M316.393,44.582a.253.253,0,0,1-.028-.356.262.262,0,0,1,.06-.051c.683-.39,1.153-.894.5-1.316a19.757,19.757,0,0,0-2.194-1.105.252.252,0,0,1-.1-.341.247.247,0,0,1,.07-.082l1.138-.731a.236.236,0,0,0-.016-.406l-1.869-1.071a.237.237,0,0,1-.082-.325h0l.682-1.251a.261.261,0,0,0-.1-.341l-1.593-.845a.245.245,0,0,1-.1-.332c0-.009.01-.017.016-.026l.731-1.056a.238.238,0,0,0-.052-.333l-.013-.009-2.535-1.69a.245.245,0,0,1-.062-.34l.013-.017.747-.861a.262.262,0,0,0-.041-.368l-.008-.006-1.884-1.17a.25.25,0,0,1-.071-.345.256.256,0,0,1,.022-.029,2.855,2.855,0,0,0,.569-1.2.252.252,0,0,0-.114-.276l-1.852-.944a.238.238,0,0,1-.049-.39c.13-.13.276-.26.374-.358a.241.241,0,0,0,0-.341l-.018-.016c-.536-.406-1.268-.975-1.69-1.284a.251.251,0,0,1-.042-.353.24.24,0,0,1,.058-.053h.016a.239.239,0,0,0-.049-.423c-1.235-.34-2.714-2.5-2.714-2.5s-1.463,2.145-2.714,2.5a.231.231,0,0,0-.049.423h.018a.26.26,0,0,1,.056.364.238.238,0,0,1-.039.043c-.423.309-1.17.861-1.69,1.284a.23.23,0,0,0-.049.322.245.245,0,0,0,.033.036c.1.1.245.245.374.358a.236.236,0,0,1-.049.39l-1.885.959a.233.233,0,0,0-.114.276,2.681,2.681,0,0,0,.569,1.2.249.249,0,0,1-.02.352.254.254,0,0,1-.029.022l-1.885,1.17a.251.251,0,0,0-.049.374l.747.862a.23.23,0,0,1-.007.325.236.236,0,0,1-.042.032L294.729,34.6a.252.252,0,0,0-.065.341L295.4,36a.247.247,0,0,1-.061.345l-.021.013-1.593.845a.257.257,0,0,0-.1.341l.682,1.251a.237.237,0,0,1-.081.325h0l-1.868,1.072a.245.245,0,0,0-.081.336.248.248,0,0,0,.065.07l1.137.731a.239.239,0,0,1-.033.423,19.815,19.815,0,0,0-2.194,1.105c-.65.423-.179.926.5,1.316a.251.251,0,0,1,.033.406c-.5.406-1.5,1.235-1.56,1.755-.065.5,1.332.341,2.145.2a.236.236,0,0,1,.228.358c-.228.374-.439.877-.228,1.219.245.39,1.267.1,1.95-.146a.228.228,0,0,1,.26.341c-.293.552-.553,1.3.195,1.479.909.227,2.178-.553,2.763-.959a.219.219,0,0,1,.341.179c.032.454.1,1.186.163,1.576.081.5,1.056,0,1.674-.845a.222.222,0,0,1,.39.081c.13.5.406,1.2.813,1.268.5.081.959-.569,1.316-1.186a.219.219,0,0,1,.406.049c.179.618.585,1.576,1.267,1.642a.616.616,0,0,0,.179-.016.685.685,0,0,0,.179.016c.682-.065,1.072-1.008,1.267-1.642a.219.219,0,0,1,.406-.049c.357.618.8,1.268,1.316,1.186.406-.065.683-.764.813-1.268a.222.222,0,0,1,.39-.081c.634.845,1.607,1.365,1.69.845.065-.39.13-1.121.163-1.576a.219.219,0,0,1,.341-.179c.585.406,1.852,1.186,2.763.959.747-.179.5-.944.2-1.479a.23.23,0,0,1,.26-.341c.683.245,1.706.52,1.95.146.21-.341,0-.845-.228-1.219a.234.234,0,0,1,.072-.323.231.231,0,0,1,.156-.035c.813.13,2.21.293,2.145-.2C317.888,45.817,316.913,44.988,316.393,44.582Z" transform="translate(-290.225 -21.634)" fill="#77c9d6"/>
    <path id="Path_39" data-name="Path 39" d="M350.78,88.324l-.276,9.621c0,.227.944.423,2.1.423s2.1-.179,2.1-.423V88.4Z" transform="translate(-329.439 -65.018)" fill="#527579"/>
    <path id="Path_40" data-name="Path 40" d="M342.918,48.407a.253.253,0,0,1-.026-.356.26.26,0,0,1,.059-.05c.683-.39,1.153-.894.5-1.316a19.761,19.761,0,0,0-2.194-1.1.252.252,0,0,1-.1-.341.247.247,0,0,1,.07-.082l1.138-.731a.236.236,0,0,0-.016-.406l-1.869-1.072a.237.237,0,0,1-.082-.325h0l.683-1.251a.261.261,0,0,0-.1-.341l-1.593-.845a.245.245,0,0,1-.1-.332c0-.009.01-.017.016-.026l.731-1.056a.238.238,0,0,0-.052-.333l-.013-.009-2.551-1.69a.245.245,0,0,1-.062-.34l.013-.017.747-.861a.262.262,0,0,0-.04-.368l-.008-.006-1.885-1.17a.249.249,0,0,1-.071-.345.245.245,0,0,1,.022-.029,2.858,2.858,0,0,0,.569-1.2.252.252,0,0,0-.114-.276l-1.852-.944a.237.237,0,0,1-.1-.319.231.231,0,0,1,.055-.071c.146-.13.276-.26.374-.358a.241.241,0,0,0,0-.341l-.018-.016c-.536-.406-1.267-.975-1.69-1.284a.252.252,0,0,1-.042-.353.248.248,0,0,1,.058-.053h.016a.249.249,0,0,0-.065-.439c-1.235-.341-2.714-2.5-2.714-2.5s-1.463,2.145-2.714,2.5a.249.249,0,0,0-.065.439h.016a.25.25,0,0,1,.071.347.253.253,0,0,1-.055.059c-.423.309-1.153.861-1.69,1.284a.23.23,0,0,0-.049.322.245.245,0,0,0,.033.036c.1.1.245.245.374.358a.236.236,0,0,1-.049.39l-1.852.944a.233.233,0,0,0-.114.276,2.68,2.68,0,0,0,.569,1.2.249.249,0,0,1-.02.352.257.257,0,0,1-.029.022l-1.885,1.17a.249.249,0,0,0-.071.345.26.26,0,0,0,.022.029l.747.862a.241.241,0,0,1-.026.34l-.023.017-2.568,1.69a.252.252,0,0,0-.065.341l.731,1.056a.247.247,0,0,1-.06.345l-.021.013-1.593.845a.257.257,0,0,0-.1.341l.682,1.251a.237.237,0,0,1-.081.325h0l-1.869,1.072a.245.245,0,0,0-.081.336.248.248,0,0,0,.065.07l1.137.731a.239.239,0,0,1-.032.423,19.823,19.823,0,0,0-2.194,1.105c-.65.422-.179.926.5,1.316a.251.251,0,0,1,.033.406c-.5.406-1.5,1.235-1.56,1.755-.065.5,1.333.341,2.145.195a.236.236,0,0,1,.228.358c-.228.374-.439.877-.228,1.219.245.39,1.268.1,1.95-.146a.228.228,0,0,1,.26.341c-.293.553-.553,1.3.2,1.479.909.228,2.178-.553,2.763-.959a.219.219,0,0,1,.341.179c.033.454.1,1.186.163,1.576.081.5,1.056,0,1.69-.845a.222.222,0,0,1,.39.081c.146.5.406,1.2.813,1.267.5.081.959-.569,1.316-1.186a.219.219,0,0,1,.406.049c.179.618.585,1.576,1.267,1.642a.617.617,0,0,0,.179-.016.685.685,0,0,0,.179.016c.683-.065,1.073-1.008,1.268-1.642a.219.219,0,0,1,.406-.049c.358.618.8,1.268,1.316,1.186.406-.065.683-.764.813-1.267a.222.222,0,0,1,.39-.081c.634.845,1.608,1.365,1.69.845.065-.39.13-1.121.163-1.576a.219.219,0,0,1,.341-.179c.585.406,1.852,1.186,2.763.959.747-.179.5-.944.195-1.479a.23.23,0,0,1,.26-.341c.683.245,1.706.52,1.95.146.21-.341,0-.845-.228-1.219a.234.234,0,0,1,.072-.323.231.231,0,0,1,.156-.035c.812.13,2.21.293,2.145-.195C344.413,49.642,343.422,48.813,342.918,48.407Z" transform="translate(-307.47 -24.11)" fill="#96d7e8"/>
    <g id="Group_14" data-name="Group 14" transform="translate(14.805 19.893)">
      <g id="Group_12" data-name="Group 12" transform="translate(1.421)">
        <g id="Group_10" data-name="Group 10">
          <path id="Path_41" data-name="Path 41" d="M347.774,88.946a1.921,1.921,0,1,1-1.916-2.063A2,2,0,0,1,347.774,88.946Z" transform="translate(-343.937 -86.883)" fill="#030504"/>
          <path id="Path_42" data-name="Path 42" d="M344.783,89.229a.985.985,0,1,1,.982,1.056A1.035,1.035,0,0,1,344.783,89.229Z" transform="translate(-344.336 -87.559)" fill="#fff"/>
          <path id="Path_43" data-name="Path 43" d="M347.944,92.188a.512.512,0,0,1,.467-.516.479.479,0,0,1,.469.491c0,.008,0,.017,0,.025a.469.469,0,1,1-.933,0Z" transform="translate(-345.827 -89.143)" fill="#fff"/>
        </g>
        <g id="Group_11" data-name="Group 11" transform="translate(9.973)">
          <path id="Path_44" data-name="Path 44" d="M366.655,88.946a1.921,1.921,0,1,1-1.916-2.063A2,2,0,0,1,366.655,88.946Z" transform="translate(-362.818 -86.883)" fill="#030504"/>
          <path id="Path_45" data-name="Path 45" d="M363.664,89.229a.985.985,0,1,1,.982,1.056A1.052,1.052,0,0,1,363.664,89.229Z" transform="translate(-363.217 -87.559)" fill="#fff"/>
          <path id="Path_46" data-name="Path 46" d="M366.872,92.188a.511.511,0,0,1,.467-.516.479.479,0,0,1,.469.491c0,.008,0,.017,0,.025a.5.5,0,0,1-.467.516.48.48,0,0,1-.468-.491C366.871,92.2,366.871,92.2,366.872,92.188Z" transform="translate(-364.73 -89.143)" fill="#fff"/>
        </g>
      </g>
      <path id="Path_47" data-name="Path 47" d="M344.121,94.816c0,.54-.639.958-1.449.958-.786,0-1.426-.442-1.426-.958s.639-.958,1.426-.958S344.121,94.276,344.121,94.816Z" transform="translate(-341.246 -90.174)" fill="#fff"/>
      <path id="Path_48" data-name="Path 48" d="M370.238,94.816c0,.54-.639.958-1.449.958-.786,0-1.449-.442-1.449-.958s.639-.958,1.449-.958S370.238,94.276,370.238,94.816Z" transform="translate(-353.557 -90.174)" fill="#fff"/>
      <path id="Path_49" data-name="Path 49" d="M355.281,97.636a2.008,2.008,0,0,1-1.941-2.06.37.37,0,0,1,.74,0v0a1.21,1.21,0,0,0,2.408.237,1.184,1.184,0,0,0,0-.237.37.37,0,0,1,.739,0v0A2.007,2.007,0,0,1,355.281,97.636Z" transform="translate(-346.952 -90.809)" fill="#030504"/>
    </g>
  </g>
  <g id="shine_1" data-name="shine 1" transform="translate(18.577 6.688)" opacity="0.38">
    <path id="Path_64" data-name="Path 64" d="M343.384,46.553s1.7-6.8,5.465-5.539" transform="translate(-343.384 -40.828)" fill="#fff"/>
    <path id="Path_65" data-name="Path 65" d="M343.384,46.5c.886-3.334,2.557-5.714,4.45-5.725a3.008,3.008,0,0,1,1.015.186,3.328,3.328,0,0,0-1.014-.122,2.911,2.911,0,0,0-1.4.487,9.489,9.489,0,0,0-3.055,5.175h0Z" transform="translate(-343.384 -40.773)" fill="#fff"/>
  </g>
  <g id="shine_1-2" data-name="shine 1" transform="translate(9.968 3.826)" opacity="0.38">
    <path id="Path_64-2" data-name="Path 64" d="M318.749,36.73s1.367-4.884,4.4-3.976" transform="translate(-318.749 -32.62)" fill="#fff"/>
    <path id="Path_65-2" data-name="Path 65" d="M318.749,36.691c.714-2.393,2.061-4.1,3.587-4.11a2.691,2.691,0,0,1,.818.133,3,3,0,0,0-.817-.087,2.535,2.535,0,0,0-1.125.35,6.732,6.732,0,0,0-2.462,3.714h0Z" transform="translate(-318.749 -32.581)" fill="#fff"/>
  </g>
  <g id="shine_1-3" data-name="shine 1" transform="translate(30.101 3.104)" opacity="0.38">
    <path id="Path_64-3" data-name="Path 64" d="M376.36,34.019s1.176-4.126,3.79-3.358" transform="translate(-376.36 -30.548)" fill="#fff"/>
    <path id="Path_65-3" data-name="Path 65" d="M376.36,33.986c.614-2.021,1.774-3.465,3.086-3.471a2.344,2.344,0,0,1,.7.113,2.611,2.611,0,0,0-.7-.074,2.206,2.206,0,0,0-.968.3,5.682,5.682,0,0,0-2.119,3.137h0Z" transform="translate(-376.36 -30.515)" fill="#fff"/>
  </g>
</svg>
