<svg xmlns="http://www.w3.org/2000/svg" width="83.033" height="75.199" viewBox="0 0 83.033 75.199">
  <g id="Group_46" data-name="Group 46" transform="translate(0.495 1.444)">
    <path id="Path_126" data-name="Path 126" d="M885.723,870.857q-2.467-2.116-4.947-4.216a46.234,46.234,0,0,1-7.16-6.984,14.833,14.833,0,0,1-3.369-9.18,5.632,5.632,0,0,1,1.21-3.632,6.885,6.885,0,0,0,1.089-1.236c.515-.969.17-2.409,1.077-3.029.6-.407,1.4-.2,2.129-.2,3.426.035,5.345-4.387,8.73-4.857a6.3,6.3,0,0,1,1.758.049,13.4,13.4,0,0,1,8.939,5.509,5.836,5.836,0,0,1,7.233,3.048c1,2.376.24,5.073-.695,7.447-7.475,18.981-7.872,20.361-7.936,25.138a.567.567,0,0,1-.928.43C890.5,877.182,887.55,872.424,885.723,870.857Z" transform="translate(-847.778 -837.486)" fill="#fff" stroke="#000" stroke-miterlimit="10" stroke-width="1"/>
    <path id="Path_127" data-name="Path 127" d="M898.911,861.568c2.086-4.877,5.07-9.852,9.98-11.857a17.362,17.362,0,0,1,6.55-1.094c1.19,0,2.547.151,3.246,1.114.221.3.353.667.563.979a5.07,5.07,0,0,0,2.386,1.547,8.39,8.39,0,0,1,2.937,1.856,3.577,3.577,0,0,1,.992,3.207,2.672,2.672,0,0,0-.212,1.282,1.8,1.8,0,0,0,.444.7,13.37,13.37,0,0,1,2.548,3.757,4.867,4.867,0,0,1-.227,4.385c-1.115,1.7-3.611,2.444-4.029,4.433-.113.539-.047,1.108-.19,1.64-.473,1.766-2.759,2.173-4.184,3.321a11.077,11.077,0,0,1-2.1,1.781c-1.076.488-2.32.131-3.481-.087a13.984,13.984,0,0,0-4.06-.157,7.951,7.951,0,0,1-3.142.04c-.56-.169-1.063-.494-1.62-.673a6.445,6.445,0,0,0-2.468-.135c-3.5.274-6.111-.615-8.438,1.362a.388.388,0,0,1-.637-.326C893.925,876.54,894.482,871.923,898.911,861.568Z" transform="translate(-846.756 -837.002)" fill="#fff" stroke="#000" stroke-miterlimit="10" stroke-width="1"/>
    <path id="Path_128" data-name="Path 128" d="M893.144,878.6a.107.107,0,0,0,.046-.18c-5.2-4.806-10.13-9.982-16.021-13.909-5.945-3.964-13.146-6.605-20.206-5.506a4.017,4.017,0,0,0-2.242.893,4.1,4.1,0,0,0-.9,1.612c-.744,2.068-1.348,4.369-3.086,5.712-.671.519-1.519.908-1.863,1.682a2.856,2.856,0,0,0-.033,1.795c.619,2.649,2.414,5.022,2.436,7.742.014,1.617-.614,3.2-.522,4.815a6.1,6.1,0,0,0,3.824,5.126,7.442,7.442,0,0,0,6.484-.636c2.3-1.383,3.8-3.8,6-5.339a19.231,19.231,0,0,1,6.944-2.57c3.93-.892,7.936-1.76,11.953-1.438C888.327,878.587,890.806,879.173,893.144,878.6Z" transform="translate(-848.713 -836.562)" fill="#fff" stroke="#000" stroke-miterlimit="10" stroke-width="1"/>
    <path id="Path_129" data-name="Path 129" d="M893.5,879.315a.133.133,0,0,1,.153-.075c3.35.868,5.826-2.256,10.277-1.7,1.935.24,7.85-.032,9.622.779a7.711,7.711,0,0,1,4.078,3.99,4.885,4.885,0,0,1-1.1,5.374,6.432,6.432,0,0,0-1.343,1.211c-.655,1.018-.137,2.369-.321,3.565-.31,2.015-2.481,3.178-3.371,5.012-.725,1.49-.8,3.627-2.364,4.172-.576.2-1.343.18-1.611.727-.21.43.035,1.013-.732,1.255a1.911,1.911,0,0,1-1.365-.119,4.05,4.05,0,0,0-4.531.923,6.02,6.02,0,0,1-1.381,1.4c-1.112.591-2.445-.174-3.416-.976a26.851,26.851,0,0,1-4.114-4.247,2.431,2.431,0,0,0-.784,1.309c-1.379-.226-2.027-1.856-2.094-3.252-.191-3.974,1.662-8.871,1.961-10.7A43.716,43.716,0,0,1,893.5,879.315Z" transform="translate(-846.959 -835.749)" fill="#fff" stroke="#000" stroke-miterlimit="10" stroke-width="1"/>
    <path id="Path_130" data-name="Path 130" d="M893.739,879.147a.222.222,0,0,0-.219-.287,80.772,80.772,0,0,0-21.11,3.573,31.85,31.85,0,0,0-8.116,3.449,14.483,14.483,0,0,0-5.755,6.535,6.832,6.832,0,0,0-.557,2.389c-.055,2.326,1.538,4.565,1.042,6.838a8.92,8.92,0,0,0-.437,1.9,2.914,2.914,0,0,0,2.477,2.538,10.924,10.924,0,0,0,3.809-.216,5.923,5.923,0,0,1,3.75.356c1.357.753,2.187,2.445,3.719,2.7,1.935.32,3.469-1.876,5.428-1.973,1.062-.052,2.05.527,3.1.677a3.982,3.982,0,0,0,3.775-1.675c.84-1.244.944-2.938,2.007-4,.709-.708,1.789-1.065,2.244-1.958a3.69,3.69,0,0,0,.3-1.149A200.937,200.937,0,0,1,893.739,879.147Z" transform="translate(-848.311 -835.688)" fill="#fff" stroke="#000" stroke-miterlimit="10" stroke-width="1"/>
    <path id="Path_131" data-name="Path 131" d="M892.3,877.524A31.828,31.828,0,0,0,889.172,868a17.7,17.7,0,0,1,2.979,6.437c-.424-5.234-.886-10.617-3.241-15.31a44.407,44.407,0,0,1,3.841,11.216,54.917,54.917,0,0,0,1.763-19.212c1.011,6.328,2.012,12.893.291,19.066a41.3,41.3,0,0,0-.944,9.1,24.111,24.111,0,0,1,14.782-19.165,73.081,73.081,0,0,0-13.951,17.933,11.9,11.9,0,0,1,9.831-4.939,27.854,27.854,0,0,0-10.688,6.583,4.128,4.128,0,0,1,4.283-.378,12.142,12.142,0,0,1,3.558,2.771l4.4,4.411c-3.344-.262-5.157-4.458-8.435-5.17,1.853,1.755,2.636,4.327,3.919,6.533a15.645,15.645,0,0,0,2.913,3.629,11.871,11.871,0,0,1-5.966-3.628,26.986,26.986,0,0,1-3.945-5.866c-.639.616-.484,1.658-.282,2.522l3.557,15.2c-1.288-.646-1.841-2.17-2.162-3.575a53.235,53.235,0,0,1-.958-6.937l-.973-10.416a35.34,35.34,0,0,1-7.569,10.232c-.239.223-.623.445-.857.217-.2-.2-.071-.538.07-.785l3.372-5.887c-.274-.193-.643.03-.9.248a54.6,54.6,0,0,0-10.569,12.1c-.359-2.443.864-4.862,2.443-6.762s3.535-3.464,5.067-5.4a12.716,12.716,0,0,1-8.446,3.785,18.454,18.454,0,0,1,7.607-4.817,44.544,44.544,0,0,1,8.361-2.291c-7.683-2.011-15.464-4.034-23.405-4.077a62.234,62.234,0,0,1,17.962,1.784c-.3-1.424-1.94-2.049-3.342-2.434l-8.345-2.29a28.071,28.071,0,0,0-7.666-1.354c7.251-.726,13.742,4.51,20.946,5.606a39.084,39.084,0,0,0-11.7-8.3c4.069,1.743,8.227,3.542,11.46,6.565,1.6,1.5,3.209,3.4,5.4,3.459C893.039,878.092,892.364,877.943,892.3,877.524Z" transform="translate(-847.896 -836.893)" stroke="#000" stroke-miterlimit="10" stroke-width="1"/>
    <path id="Path_132" data-name="Path 132" d="M890.5,876.367a92.43,92.43,0,0,1-7.909-14.036c-.762-1.559-1.524-3.119-2.163-4.726a66.631,66.631,0,0,1-2.659-9.141,40.071,40.071,0,0,1-.869-4.318,17.885,17.885,0,0,1,.091-5.241,79.6,79.6,0,0,0,3.723,14.595c1.76,4.63,4.206,9.009,6.109,13.59C888.3,870.667,889.479,874.4,890.5,876.367Z" transform="translate(-847.495 -837.424)" stroke="#000" stroke-miterlimit="10" stroke-width="1"/>
    <path id="Path_133" data-name="Path 133" d="M877.689,838.392c.6-.749,1.134-1.389,1.752-2.12a.512.512,0,0,1-.308-.512c.013-.612.615-.592.889-.568.168.013.378.137.263.857-.044.274-.506.412-.751.352a22.329,22.329,0,0,1-1.735,2.337C877.755,838.648,877.779,838.458,877.689,838.392Z" transform="translate(-848.313 -833.573)" stroke="#000" stroke-miterlimit="10" stroke-width="1"/>
    <path id="Path_134" data-name="Path 134" d="M878.453,842.222c.563-.687,1.075-1.27,1.663-1.936a.629.629,0,0,1-.375-.535c-.043-.605.6-.528.891-.48.18.03.413.171.359.872-.022.268-.5.362-.765.279a17,17,0,0,1-1.626,2.152C878.546,842.482,878.555,842.3,878.453,842.222Z" transform="translate(-848.105 -835.142)" stroke="#000" stroke-miterlimit="10" stroke-width="1"/>
    <path id="Path_135" data-name="Path 135" d="M879.018,846.525c.564-.687,1.076-1.27,1.663-1.935a.628.628,0,0,1-.374-.535c-.044-.605.6-.528.89-.48.181.03.414.171.359.872-.021.268-.5.361-.764.279a17.094,17.094,0,0,1-1.626,2.151C879.112,846.785,879.12,846.6,879.018,846.525Z" transform="translate(-848.286 -836.147)" stroke="#000" stroke-miterlimit="10" stroke-width="1"/>
    <path id="Path_136" data-name="Path 136" d="M877.188,842.9c-1-.732-1.888-1.35-2.9-2.057.184-.109.206-.372.094-.625a.95.95,0,0,0-1.234-.478c-.177.045-.348.219.116,1a.915.915,0,0,0,.983.261,37.357,37.357,0,0,0,2.989,2.3C877.238,843.195,877.121,842.987,877.188,842.9Z" transform="translate(-847.66 -837.391)" stroke="#000" stroke-miterlimit="10" stroke-width="1"/>
    <path id="Path_137" data-name="Path 137" d="M878.261,847.794c-1-.731-1.889-1.35-2.9-2.057.184-.109.205-.373.094-.625a.952.952,0,0,0-1.234-.479c-.177.046-.348.22.116,1a.915.915,0,0,0,.983.261,37.358,37.358,0,0,0,2.989,2.3C878.31,848.091,878.194,847.885,878.261,847.794Z" transform="translate(-847.613 -837.178)" stroke="#000" stroke-miterlimit="10" stroke-width="1"/>
  </g>
</svg>
