<svg id="Group_52" data-name="Group 52" xmlns="http://www.w3.org/2000/svg" width="30.142" height="32.146" viewBox="0 0 30.142 32.146">
  <path id="Path_141" data-name="Path 141" d="M95.135,120.91c-.53-.816.194-1.191.289-4.12.1-3.079-.738-3.915-.736-6.868a18.459,18.459,0,0,1,.736-5.642,14.713,14.713,0,0,1,5.827-7.9c4.892-3.147,11.819-2.874,15.267.294a6.233,6.233,0,0,1,1.962,3.189c.653,2.894-1.251,5.765-1.717,5.642-.414-.11.747-2.467-.388-4.147-1.629-2.41-7.561-2.8-10.65.222a8.494,8.494,0,0,0-2.185,5.892c-.037.8-.311,5.458,2.652,7.955,2.79,2.352,8.867,3.143,9.4,3.212a4.235,4.235,0,0,1,1.55.517c.383.218,1.168.666,1.14,1.079-.062.9-3.962,1.466-7.016,1.559a41.266,41.266,0,0,1-4.329-.166C99.252,121.2,96.2,122.556,95.135,120.91Z" transform="translate(-88.473 -89.664)" fill="#77c9d6"/>
  <path id="Path_142" data-name="Path 142" d="M89.463,109.13c-.75-1.206.174-1.869.059-5.932-.095-3.322-.738-3.8-.736-6.868a18.479,18.479,0,0,1,.736-5.642,14.711,14.711,0,0,1,5.827-7.9c4.891-3.148,11.818-2.874,15.267.294a6.234,6.234,0,0,1,1.962,3.189c.653,2.894-1.251,5.765-1.717,5.642-.414-.11.747-2.467-.388-4.147-1.629-2.41-7.561-2.8-10.65.222a8.493,8.493,0,0,0-2.185,5.891c-.161,3.519,1.488,6.119,2.652,7.955a16.818,16.818,0,0,0,4.64,4.972c4,2.785,7.8,2.61,7.757,3.176-.035.51-3.111.573-12.839.691C93.613,110.753,90.474,110.757,89.463,109.13Z" transform="translate(-84.522 -80.565)" fill="#96d7e8"/>
  <path id="Path_143" data-name="Path 143" d="M76.579,113.841c-.766-1.233.178-1.91.06-6.062-.1-3.394-.754-3.884-.752-7.018A18.886,18.886,0,0,1,76.639,95a15.036,15.036,0,0,1,5.954-8.07c5-3.216,12.075-2.937,15.6.3a6.371,6.371,0,0,1,2.005,3.258c.667,2.957-1.278,5.891-1.754,5.765-.423-.113.763-2.521-.4-4.237-1.664-2.463-7.725-2.861-10.881.227a8.681,8.681,0,0,0-2.232,6.02c-.165,3.6,1.52,6.253,2.71,8.129a17.194,17.194,0,0,0,4.742,5.081c4.089,2.845,7.965,2.667,7.925,3.246-.036.521-3.179.585-13.118.706C80.819,115.5,77.612,115.5,76.579,113.841Z" transform="translate(-75.887 -83.301)" fill="#44bacf"/>
  <path id="Path_64" data-name="Path 64" d="M87.981,97.264s2.814-6.007,6.083-4.146" transform="translate(-83.983 -88.729)" fill="#fff" opacity="0.8"/>
</svg>
