<svg id="Group_43" data-name="Group 43" xmlns="http://www.w3.org/2000/svg" width="31.601" height="45.773" viewBox="0 0 31.601 45.773">
  <g id="Group_42" data-name="Group 42" transform="translate(0 0)">
    <g id="Group_1" data-name="Group 1" transform="translate(0 31.827)">
      <path id="Path_4" data-name="Path 4" d="M314.378,278.817l10.652-2.374,1.558,3.832-11.8,4.956Z" transform="translate(-311.804 -276.443)" fill="#527579"/>
      <ellipse id="Ellipse_1" data-name="Ellipse 1" cx="2.58" cy="3.219" rx="2.58" ry="3.219" transform="matrix(0.998, -0.063, 0.063, 0.998, 0, 2.519)" fill="#527579"/>
      <path id="Path_5" data-name="Path 5" d="M311.59,289.39a1.9,1.9,0,0,1-1.149-.434,3.074,3.074,0,0,1-.766-.971,3.563,3.563,0,0,1-.434-2.759,2.2,2.2,0,0,1,2.4-1.507.26.26,0,0,1-.1.511,1.68,1.68,0,0,0-1.814,1.149,3.06,3.06,0,0,0,.383,2.35,2.453,2.453,0,0,0,.639.817,1.3,1.3,0,0,0,.919.306,1.34,1.34,0,0,0,.817-.46,2.809,2.809,0,0,0,.459-.919.277.277,0,0,1,.306-.179.263.263,0,0,1,.179.306,2.664,2.664,0,0,1-.562,1.072,1.876,1.876,0,0,1-1.149.639C311.692,289.39,311.641,289.39,311.59,289.39Z" transform="translate(-308.556 -280.91)" fill="#2c3c3e"/>
      <path id="Path_6" data-name="Path 6" d="M313.978,288.876a.925.925,0,0,1-.715-.383,1.65,1.65,0,0,1-.306-.766.5.5,0,0,1,.23-.511.688.688,0,0,1,.664-.054.677.677,0,0,1,.358.562.279.279,0,0,1-.23.281.3.3,0,0,1-.281-.23c0-.1-.051-.1-.077-.128a.16.16,0,0,0-.153,0c-.026,0-.026.026-.026.051a1.366,1.366,0,0,0,.179.485c.051.051.23.23.383.2.1-.026.128-.051.179-.153a1.427,1.427,0,0,1,.2-.23,1.635,1.635,0,0,1,.179-.128c.051-.026.1-.077.153-.1.179-.128.23-.281.23-.588a1.753,1.753,0,0,0-.306-.971,1.167,1.167,0,0,0-.766-.459,1.291,1.291,0,0,0-.511.1.68.68,0,0,0-.434.332.252.252,0,1,1-.466-.191l.006-.013a1.156,1.156,0,0,1,.715-.613,1.962,1.962,0,0,1,.74-.127,1.592,1.592,0,0,1,1.149.664,2.288,2.288,0,0,1,.409,1.25,1.124,1.124,0,0,1-.409,1,1.83,1.83,0,0,1-.179.128,1.715,1.715,0,0,1-.153.1.25.25,0,0,0-.1.128.665.665,0,0,1-.485.332A.5.5,0,0,1,313.978,288.876Z" transform="translate(-310.612 -281.877)" fill="#2c3c3e"/>
      <path id="Path_7" data-name="Path 7" d="M313.332,291.015a.923.923,0,0,1-.511-.153,1.358,1.358,0,0,1-.588-.613,5.874,5.874,0,0,1-.306-.868,1.547,1.547,0,0,1,.2-1.124,1.514,1.514,0,0,1,.689-.536,1.327,1.327,0,0,1,1.124,0,.771.771,0,0,1,.334.636.255.255,0,0,1-.511,0c0-.153-.051-.2-.077-.2a.8.8,0,0,0-.639.026,1.046,1.046,0,0,0-.485.358.985.985,0,0,0-.128.715,6.272,6.272,0,0,0,.255.741,1.045,1.045,0,0,0,.409.409.5.5,0,0,0,.383.051.251.251,0,1,1,.128.485h0A.584.584,0,0,1,313.332,291.015Z" transform="translate(-310.273 -283.326)" fill="#2c3c3e"/>
    </g>
    <g id="Group_2" data-name="Group 2" transform="translate(9.157 30.192)">
      <path id="Path_8" data-name="Path 8" d="M335.594,281.854l5.032-9.681,3.934,1.277-3.806,12.21Z" transform="translate(-334.054 -272.173)" fill="#527579"/>
      <ellipse id="Ellipse_2" data-name="Ellipse 2" cx="2.58" cy="3.219" rx="2.58" ry="3.219" transform="translate(0 11.76) rotate(-53.593)" fill="#527579"/>
      <path id="Path_9" data-name="Path 9" d="M340.439,300.826a1.962,1.962,0,0,1-1.072.613,3.483,3.483,0,0,1-1.252-.026,3.584,3.584,0,0,1-2.374-1.43,2.2,2.2,0,0,1,.409-2.81.249.249,0,0,1,.351.042l.007.009a.275.275,0,0,1-.051.358,1.674,1.674,0,0,0-.281,2.12,3.171,3.171,0,0,0,2.044,1.225,2.454,2.454,0,0,0,1.048.026,1.192,1.192,0,0,0,1.01-1.35c0-.027-.009-.054-.015-.081a2.375,2.375,0,0,0-.409-.919.259.259,0,1,1,.434-.281h0a3.488,3.488,0,0,1,.486,1.124,1.894,1.894,0,0,1-.255,1.3Q340.515,300.788,340.439,300.826Z" transform="translate(-333.943 -287.568)" fill="#2c3c3e"/>
      <path id="Path_10" data-name="Path 10" d="M340.821,299.3a.93.93,0,0,1-.766.306,1.925,1.925,0,0,1-.792-.255.6.6,0,0,1-.255-.511.66.66,0,0,1,.383-.536.585.585,0,0,1,.639.077.271.271,0,0,1,.051.358.275.275,0,0,1-.358.051.132.132,0,0,0-.128-.026.14.14,0,0,0-.077.128c0,.026,0,.026.026.051a1.253,1.253,0,0,0,.485.179c.077,0,.306-.026.383-.153a.192.192,0,0,0,0-.23.9.9,0,0,1-.051-.281.857.857,0,0,1,.026-.23c0-.077.026-.128.026-.179a.6.6,0,0,0-.306-.536,1.7,1.7,0,0,0-.945-.383,1.162,1.162,0,0,0-.842.281.983.983,0,0,0-.255.459.861.861,0,0,0-.026.562.252.252,0,0,1-.459.2,1.206,1.206,0,0,1,0-.945,1.916,1.916,0,0,1,.383-.639,1.654,1.654,0,0,1,1.252-.459,2.227,2.227,0,0,1,1.225.485,1.06,1.06,0,0,1,.486.945.639.639,0,0,1-.026.2,1.5,1.5,0,0,1-.026.179.319.319,0,0,0,.026.153.89.89,0,0,1-.051.613A.113.113,0,0,1,340.821,299.3Z" transform="translate(-335.219 -287.24)" fill="#2c3c3e"/>
      <path id="Path_11" data-name="Path 11" d="M342.325,301.187a1.043,1.043,0,0,1-.434.306,1.387,1.387,0,0,1-.842.051,5.13,5.13,0,0,1-.868-.332,1.5,1.5,0,0,1-.715-.868,1.471,1.471,0,0,1,.051-.868,1.294,1.294,0,0,1,.741-.868.7.7,0,0,1,.689.153.279.279,0,0,1,.051.358.249.249,0,0,1-.35.032l-.008-.007c-.128-.1-.179-.077-.2-.077-.179.051-.332.332-.383.511a1.24,1.24,0,0,0-.051.588,1.009,1.009,0,0,0,.459.562,5.189,5.189,0,0,0,.715.281.952.952,0,0,0,.588-.051.441.441,0,0,0,.281-.281.225.225,0,0,1,.294-.122.206.206,0,0,1,.038.02.229.229,0,0,1,.118.3.254.254,0,0,1-.015.029A.924.924,0,0,1,342.325,301.187Z" transform="translate(-336.417 -288.466)" fill="#2c3c3e"/>
    </g>
    <g id="Group_3" data-name="Group 3" transform="translate(16.853 31.827)">
      <path id="Path_12" data-name="Path 12" d="M363.859,278.817l-10.653-2.374-1.531,3.832,11.776,4.956Z" transform="translate(-351.674 -276.443)" fill="#527579"/>
      <ellipse id="Ellipse_3" data-name="Ellipse 3" cx="3.219" cy="2.58" rx="3.219" ry="2.58" transform="matrix(0.063, -0.998, 0.998, 0.063, 9.192, 8.633)" fill="#527579"/>
      <path id="Path_13" data-name="Path 13" d="M379.326,289.39a1.9,1.9,0,0,0,1.149-.434,3.08,3.08,0,0,0,.766-.971,3.564,3.564,0,0,0,.434-2.759,2.2,2.2,0,0,0-2.4-1.507.265.265,0,0,0-.2.306.281.281,0,0,0,.306.2,1.68,1.68,0,0,1,1.814,1.149,3.06,3.06,0,0,1-.383,2.35,2.463,2.463,0,0,1-.639.817,1.3,1.3,0,0,1-.919.306,1.276,1.276,0,0,1-.817-.46,2.8,2.8,0,0,1-.459-.919.277.277,0,0,0-.306-.179.262.262,0,0,0-.179.306,2.653,2.653,0,0,0,.562,1.072,1.873,1.873,0,0,0,1.149.639C379.25,289.39,379.274,289.39,379.326,289.39Z" transform="translate(-367.6 -280.91)" fill="#2c3c3e"/>
      <path id="Path_14" data-name="Path 14" d="M379.032,288.877a.925.925,0,0,0,.715-.383,1.659,1.659,0,0,0,.306-.766.5.5,0,0,0-.23-.511.689.689,0,0,0-.665-.054.676.676,0,0,0-.358.562.278.278,0,0,0,.23.281c.128.026.255-.1.281-.23,0-.1.051-.1.077-.128a.16.16,0,0,1,.153,0c.026,0,.026.026.026.051a1.382,1.382,0,0,1-.179.485c-.051.051-.2.23-.383.2-.1-.026-.128-.051-.179-.153a1.463,1.463,0,0,0-.2-.23c-.051-.026-.1-.077-.179-.128-.051-.026-.1-.077-.153-.1-.179-.128-.23-.281-.2-.588a1.75,1.75,0,0,1,.306-.97,1.165,1.165,0,0,1,.766-.459,1.293,1.293,0,0,1,.511.1.682.682,0,0,1,.434.332.251.251,0,1,0,.465-.191l-.006-.013a1.158,1.158,0,0,0-.715-.613,1.967,1.967,0,0,0-.738-.127,1.591,1.591,0,0,0-1.149.664,2.1,2.1,0,0,0-.41,1.25,1.122,1.122,0,0,0,.409,1c.051.026.1.077.179.128a1.65,1.65,0,0,0,.153.1.254.254,0,0,1,.1.128.664.664,0,0,0,.485.332A.328.328,0,0,0,379.032,288.877Z" transform="translate(-367.639 -281.877)" fill="#2c3c3e"/>
      <path id="Path_15" data-name="Path 15" d="M380.709,291.015a.925.925,0,0,0,.511-.153,1.361,1.361,0,0,0,.588-.613,5.913,5.913,0,0,0,.306-.868,1.551,1.551,0,0,0-.2-1.124,1.518,1.518,0,0,0-.689-.536,1.327,1.327,0,0,0-1.124,0,.769.769,0,0,0-.332.639.255.255,0,0,0,.511,0c0-.153.051-.2.077-.2a.86.86,0,0,1,.664.026,1.05,1.05,0,0,1,.486.358.989.989,0,0,1,.128.715,6.345,6.345,0,0,1-.255.741,1.049,1.049,0,0,1-.409.409.482.482,0,0,1-.383.051.251.251,0,1,0-.128.485A.5.5,0,0,0,380.709,291.015Z" transform="translate(-369.009 -283.326)" fill="#2c3c3e"/>
    </g>
    <path id="Path_16" data-name="Path 16" d="M340.652,207.671c-.434-1.967.868-4.726.868-4.726a6.2,6.2,0,0,0-3.627,4.317,11.2,11.2,0,0,1-1.737,4.01c1.252-6.209-3.219-8.354-6.08-10.475-3.063-2.273-1.2-7.485-1.2-7.485a6.768,6.768,0,0,0-4.215,5.16c-.281,2.12-1.737,3.219-3.729,5.875a11.59,11.59,0,0,0-2.221,7.255,8.812,8.812,0,0,0-5.519-3.883,7.266,7.266,0,0,1,1.661,5.824c-.383,2.708-.945,4.9-.842,6.514,0,6.105,6.131,11.061,13.668,11.061,7.561,0,13.053-4.623,13.668-11.061A41.61,41.61,0,0,0,340.652,207.671Z" transform="translate(-311.072 -193.314)" fill="#96d7e8"/>
    <path id="Path_17" data-name="Path 17" d="M322.149,230.238c.358-1.175-.715-2.81-.715-2.81a4.5,4.5,0,0,1,2.989,2.58,16.063,16.063,0,0,0,1.43,2.374c-1.022-3.677,1.814-7.3,3.78-8.99,2.2-1.865,1.635-6.463,1.635-6.463,2.171.613,3.883,4.521,4.317,5.492.434.945.715,2.067,3.4,4.547,2.144,1.991,1.225,5.62,1.225,5.62a7.886,7.886,0,0,1,4.547-2.3,3.525,3.525,0,0,0-1.354,3.448,16.229,16.229,0,0,1,.689,3.883c0,3.627-5.058,8.379-11.265,8.379s-10.778-4.574-11.263-8.38A18.466,18.466,0,0,1,322.149,230.238Z" transform="translate(-316.151 -207.888)" fill="#77c9d6"/>
    <g id="Group_8" data-name="Group 8" transform="translate(8.277 26.833)">
      <g id="Group_7" data-name="Group 7">
        <g id="Group_6" data-name="Group 6" transform="translate(1.478)">
          <g id="Group_4" data-name="Group 4">
            <path id="Path_18" data-name="Path 18" d="M337.123,265.519a2,2,0,1,1-1.991-2.12A2.058,2.058,0,0,1,337.123,265.519Z" transform="translate(-333.134 -263.399)" fill="#030504"/>
            <path id="Path_19" data-name="Path 19" d="M334.277,266.337a1.025,1.025,0,1,1,1.022,1.1,1.059,1.059,0,0,1-1.022-1.1Z" transform="translate(-333.839 -264.625)" fill="#fff"/>
            <path id="Path_20" data-name="Path 20" d="M338.879,270.807a.532.532,0,0,1,.486-.536.5.5,0,0,1,.487.508c0,.009,0,.018,0,.028a.488.488,0,1,1-.971.1.525.525,0,0,1,0-.1Z" transform="translate(-336.678 -267.64)" fill="#fff"/>
          </g>
          <g id="Group_5" data-name="Group 5" transform="translate(10.371)">
            <path id="Path_21" data-name="Path 21" d="M364.211,265.519a2,2,0,1,1-1.991-2.12A2.058,2.058,0,0,1,364.211,265.519Z" transform="translate(-360.222 -263.399)" fill="#030504"/>
            <path id="Path_22" data-name="Path 22" d="M361.365,266.337a1.025,1.025,0,1,1,1.022,1.1,1.059,1.059,0,0,1-1.022-1.1Z" transform="translate(-360.927 -264.625)" fill="#fff"/>
            <path id="Path_23" data-name="Path 23" d="M365.969,270.807a.532.532,0,0,1,.485-.536.5.5,0,0,1,.487.508c0,.009,0,.018,0,.028a.531.531,0,0,1-.486.536A.514.514,0,0,1,365.969,270.807Z" transform="translate(-363.768 -267.64)" fill="#fff"/>
          </g>
        </g>
        <path id="Path_24" data-name="Path 24" d="M332.237,274.4c0,.562-.664,1-1.482,1s-1.482-.459-1.482-1,.664-1,1.482-1C331.571,273.38,332.237,273.84,332.237,274.4Z" transform="translate(-329.274 -269.574)" fill="#fff"/>
        <path id="Path_25" data-name="Path 25" d="M369.733,274.4c0,.562-.664,1-1.482,1s-1.482-.459-1.482-1,.664-1,1.482-1C369.068,273.38,369.733,273.84,369.733,274.4Z" transform="translate(-352.414 -269.574)" fill="#fff"/>
      </g>
      <path id="Path_26" data-name="Path 26" d="M348.638,277.807a2.085,2.085,0,0,1-2.018-2.144.383.383,0,1,1,.766,0,1.258,1.258,0,1,0,2.5.244,1.242,1.242,0,0,0,0-.244.383.383,0,1,1,.766,0A2.085,2.085,0,0,1,348.638,277.807Z" transform="translate(-339.978 -270.731)" fill="#030504"/>
    </g>
  </g>
  <g id="shine_1" data-name="shine 1" transform="translate(10.621 16.323)" opacity="0.38">
    <path id="Path_64" data-name="Path 64" d="M335.4,242.736s-.216-5.3,4.615-6.788" transform="translate(-335.395 -235.948)" fill="#fff"/>
    <path id="Path_65" data-name="Path 65" d="M335.4,242.736a6.809,6.809,0,0,1,3.365-6.291,7.11,7.11,0,0,1,1.251-.5,8.08,8.08,0,0,0-1.229.537,6.294,6.294,0,0,0-1.479,1.15,7.722,7.722,0,0,0-1.907,5.1h0Z" transform="translate(-335.396 -235.948)" fill="#fff"/>
  </g>
</svg>
