<svg xmlns="http://www.w3.org/2000/svg" width="141.228" height="126.223" viewBox="0 0 141.228 126.223">
  <g id="Group_45" data-name="Group 45" transform="translate(-848.221 -838.794)">
    <path id="Path_126" data-name="Path 126" d="M896.7,894.532q-4.217-3.617-8.457-7.206c-4.361-3.69-8.781-7.4-12.24-11.938s-5.92-10.046-5.76-15.693a9.627,9.627,0,0,1,2.069-6.209,11.781,11.781,0,0,0,1.862-2.114c.879-1.657.291-4.119,1.841-5.178,1.018-.7,2.4-.346,3.639-.333,5.856.061,9.136-7.5,14.924-8.3a10.753,10.753,0,0,1,3.005.084,22.9,22.9,0,0,1,15.281,9.418,9.977,9.977,0,0,1,12.364,5.21c1.707,4.062.41,8.672-1.188,12.73-12.778,32.447-13.456,34.805-13.567,42.973a.969.969,0,0,1-1.586.735C904.874,905.343,899.828,897.211,896.7,894.532Z" transform="translate(16.872 1.805)" fill="#fff" stroke="#000" stroke-miterlimit="10" stroke-width="1"/>
    <path id="Path_127" data-name="Path 127" d="M902.561,870.755c3.566-8.337,8.667-16.842,17.061-20.268a29.674,29.674,0,0,1,11.2-1.869c2.034,0,4.354.259,5.549,1.9.378.521.6,1.14.963,1.673.92,1.364,2.565,2,4.079,2.645a14.344,14.344,0,0,1,5.021,3.173,6.115,6.115,0,0,1,1.7,5.481,4.565,4.565,0,0,0-.362,2.192,3.072,3.072,0,0,0,.758,1.2,22.857,22.857,0,0,1,4.356,6.423,8.32,8.32,0,0,1-.389,7.5c-1.907,2.9-6.173,4.177-6.887,7.577-.193.922-.08,1.894-.325,2.8-.808,3.02-4.716,3.715-7.153,5.677-1.229.99-2.156,2.392-3.594,3.045-1.839.835-3.965.225-5.95-.148a23.9,23.9,0,0,0-6.94-.268c-1.794.195-3.644.589-5.371.068-.958-.289-1.818-.844-2.77-1.151a11.02,11.02,0,0,0-4.218-.23c-5.982.469-10.447-1.051-14.425,2.328a.663.663,0,0,1-1.09-.556C894.037,896.35,894.99,888.457,902.561,870.755Z" transform="translate(35.307 10.529)" fill="#fff" stroke="#000" stroke-miterlimit="10" stroke-width="1"/>
    <path id="Path_128" data-name="Path 128" d="M924.664,892.678a.182.182,0,0,0,.079-.308c-8.892-8.216-17.316-17.063-27.387-23.777-10.163-6.776-22.473-11.291-34.541-9.412a6.865,6.865,0,0,0-3.833,1.527,7.012,7.012,0,0,0-1.532,2.756c-1.272,3.535-2.3,7.468-5.276,9.764-1.147.887-2.6,1.552-3.184,2.875a4.884,4.884,0,0,0-.057,3.068c1.058,4.529,4.126,8.585,4.165,13.235.023,2.765-1.049,5.47-.892,8.232a10.424,10.424,0,0,0,6.537,8.763,12.722,12.722,0,0,0,11.084-1.088c3.931-2.363,6.5-6.489,10.253-9.127,3.475-2.442,7.729-3.453,11.871-4.393,6.717-1.525,13.567-3.009,20.432-2.458C916.431,892.658,920.669,893.661,924.664,892.678Z" transform="translate(0 18.472)" fill="#fff" stroke="#000" stroke-miterlimit="10" stroke-width="1"/>
    <path id="Path_129" data-name="Path 129" d="M896.626,880.623a.227.227,0,0,1,.262-.128c5.727,1.484,9.958-3.856,17.568-2.911,3.307.41,13.419-.055,16.448,1.332a13.181,13.181,0,0,1,6.971,6.821c1.215,3.1.637,7-1.88,9.186a10.994,10.994,0,0,0-2.3,2.071c-1.12,1.741-.234,4.049-.549,6.095-.53,3.444-4.242,5.433-5.763,8.567-1.24,2.547-1.365,6.2-4.04,7.131-.985.343-2.3.307-2.754,1.243-.359.735.061,1.732-1.25,2.146a3.267,3.267,0,0,1-2.333-.2,6.923,6.923,0,0,0-7.745,1.578,10.288,10.288,0,0,1-2.361,2.4c-1.9,1.01-4.179-.3-5.84-1.668a45.9,45.9,0,0,1-7.033-7.26,4.156,4.156,0,0,0-1.339,2.239c-2.356-.387-3.466-3.173-3.58-5.56-.326-6.794,2.841-15.165,3.352-18.283C892.951,892.417,894.739,884.7,896.626,880.623Z" transform="translate(31.64 33.141)" fill="#fff" stroke="#000" stroke-miterlimit="10" stroke-width="1"/>
    <path id="Path_130" data-name="Path 130" d="M919.107,879.351a.379.379,0,0,0-.374-.491,138.074,138.074,0,0,0-36.086,6.107,54.444,54.444,0,0,0-13.874,5.9,24.758,24.758,0,0,0-9.837,11.171,11.676,11.676,0,0,0-.953,4.085c-.095,3.976,2.629,7.8,1.782,11.689a15.244,15.244,0,0,0-.747,3.252c.014,2.187,2.092,3.894,4.234,4.338s4.349-.044,6.51-.369,4.5-.453,6.411.608c2.321,1.288,3.738,4.179,6.357,4.613,3.307.548,5.931-3.207,9.279-3.373,1.816-.089,3.5.9,5.3,1.158a6.807,6.807,0,0,0,6.453-2.863c1.436-2.126,1.614-5.023,3.43-6.835,1.211-1.21,3.057-1.821,3.837-3.346a6.306,6.306,0,0,0,.51-1.964C912.882,902.628,918.018,882.759,919.107,879.351Z" transform="translate(7.264 34.23)" fill="#fff" stroke="#000" stroke-miterlimit="10" stroke-width="1"/>
    <path id="Path_131" data-name="Path 131" d="M909.866,896.245a54.409,54.409,0,0,0-5.341-16.273,30.26,30.26,0,0,1,5.092,11c-.724-8.947-1.514-18.149-5.54-26.172a75.914,75.914,0,0,1,6.566,19.173,93.881,93.881,0,0,0,3.014-32.841c1.728,10.818,3.439,22.039.5,32.592-1.475,5.3-1.718,14.821-1.614,15.552a41.215,41.215,0,0,1,25.27-32.761,124.92,124.92,0,0,0-23.848,30.655,20.338,20.338,0,0,1,16.806-8.442,47.612,47.612,0,0,0-18.27,11.253c1.953-1.694,4.953-1.678,7.322-.646a20.758,20.758,0,0,1,6.082,4.738l7.522,7.54c-5.717-.448-8.815-7.62-14.419-8.838,3.168,3,4.506,7.4,6.7,11.168a26.746,26.746,0,0,0,4.98,6.2,20.293,20.293,0,0,1-10.2-6.2,46.127,46.127,0,0,1-6.744-10.028c-1.092,1.052-.828,2.834-.482,4.311l6.081,25.988c-2.2-1.1-3.146-3.71-3.7-6.111a90.99,90.99,0,0,1-1.638-11.858l-1.664-17.8A60.408,60.408,0,0,1,899.4,915.935c-.409.382-1.065.762-1.464.371-.346-.341-.121-.92.119-1.341l5.765-10.064c-.469-.33-1.1.052-1.536.425a93.35,93.35,0,0,0-18.067,20.682c-.614-4.175,1.477-8.312,4.176-11.558s6.043-5.922,8.662-9.232a21.737,21.737,0,0,1-14.437,6.469c3.378-3.933,8.162-6.382,13-8.233a76.145,76.145,0,0,1,14.293-3.917c-13.133-3.437-26.434-6.9-40.01-6.969a106.392,106.392,0,0,1,30.7,3.05c-.51-2.435-3.316-3.5-5.713-4.161l-14.264-3.915c-4.293-1.177-8.654-2.365-13.1-2.315,12.395-1.242,23.491,7.709,35.806,9.584a66.812,66.812,0,0,0-20-14.191c6.956,2.979,14.064,6.056,19.59,11.223,2.736,2.558,5.485,5.8,9.231,5.913C911.136,897.217,909.982,896.962,909.866,896.245Z" transform="translate(14.747 12.502)" stroke="#000" stroke-miterlimit="10" stroke-width="1"/>
    <path id="Path_132" data-name="Path 132" d="M900.25,902.943c-5.435-7.468-9.493-15.757-13.52-23.994-1.3-2.665-2.606-5.331-3.7-8.078a113.9,113.9,0,0,1-4.545-15.625A68.483,68.483,0,0,1,877,847.864a30.574,30.574,0,0,1,.155-8.96,136.07,136.07,0,0,0,6.364,24.948c3.009,7.914,7.19,15.4,10.444,23.231C896.5,893.2,898.513,899.59,900.25,902.943Z" transform="translate(21.969 2.918)" stroke="#000" stroke-miterlimit="10" stroke-width="1"/>
    <path id="Path_133" data-name="Path 133" d="M877.689,840.668c1.018-1.281,1.939-2.374,2.995-3.624a.876.876,0,0,1-.526-.876c.021-1.047,1.05-1.011,1.52-.97.287.023.646.234.449,1.464-.075.469-.865.7-1.284.6a38.186,38.186,0,0,1-2.966,4C877.8,841.107,877.842,840.783,877.689,840.668Z" transform="translate(21.754 4.976)" stroke="#000" stroke-miterlimit="10" stroke-width="1"/>
    <path id="Path_134" data-name="Path 134" d="M878.453,844.338c.963-1.174,1.837-2.171,2.843-3.309a1.075,1.075,0,0,1-.64-.915c-.073-1.035,1.022-.9,1.523-.82.307.052.706.292.614,1.491-.037.458-.854.619-1.307.476a29.067,29.067,0,0,1-2.779,3.678C878.612,844.782,878.628,844.467,878.453,844.338Z" transform="translate(22.724 6.993)" stroke="#000" stroke-miterlimit="10" stroke-width="1"/>
    <path id="Path_135" data-name="Path 135" d="M879.018,848.641c.963-1.174,1.839-2.171,2.843-3.309a1.073,1.073,0,0,1-.638-.915c-.075-1.035,1.02-.9,1.521-.821.309.052.708.293.614,1.491-.036.458-.853.617-1.306.476a29.222,29.222,0,0,1-2.779,3.678C879.179,849.085,879.193,848.768,879.018,848.641Z" transform="translate(22.741 8.888)" stroke="#000" stroke-miterlimit="10" stroke-width="1"/>
    <path id="Path_136" data-name="Path 136" d="M880.187,845.181c-1.711-1.251-3.227-2.308-4.964-3.516.314-.186.351-.637.16-1.068a1.625,1.625,0,0,0-2.11-.817c-.3.077-.594.375.2,1.711a1.564,1.564,0,0,0,1.68.446,63.848,63.848,0,0,0,5.11,3.937C880.273,845.691,880.073,845.336,880.187,845.181Z" transform="translate(19.003 3.521)" stroke="#000" stroke-miterlimit="10" stroke-width="1"/>
    <path id="Path_137" data-name="Path 137" d="M881.261,850.079c-1.712-1.25-3.229-2.308-4.966-3.516.314-.186.351-.637.16-1.068a1.627,1.627,0,0,0-2.11-.819c-.3.079-.594.376.2,1.712a1.564,1.564,0,0,0,1.68.446,63.823,63.823,0,0,0,5.11,3.937C881.344,850.588,881.146,850.234,881.261,850.079Z" transform="translate(19.843 7.36)" stroke="#000" stroke-miterlimit="10" stroke-width="1"/>
  </g>
</svg>
