<svg id="Group_41" data-name="Group 41" xmlns="http://www.w3.org/2000/svg" width="42.958" height="36.767" viewBox="0 0 42.958 36.767">
  <g id="cloudy_icon" data-name="cloudy icon">
    <g id="Cloudy_Rain" data-name="Cloudy Rain">
      <path id="pink_cloud" data-name="pink cloud" d="M285.852,407.309a12.994,12.994,0,0,0-24.256-.515,7.626,7.626,0,0,0-5.823,10.111,8.657,8.657,0,0,0,4.412,1.036,8.771,8.771,0,0,0,2.017-.308,15.121,15.121,0,0,0,21.536-.914,15.388,15.388,0,0,0,1.245-1.562,7.123,7.123,0,0,0,7.072-1.951,6.165,6.165,0,0,0-6.2-5.895Z" transform="translate(-251.113 -390.855)" fill="#96d7e8"/>
      <path id="salmond_cloud" data-name="salmond cloud" d="M280.308,388.757a15.189,15.189,0,0,0-28.352-.6,8.907,8.907,0,0,0-2.685,16.6A7.62,7.62,0,0,1,253.734,395a7.435,7.435,0,0,1,1.361-.363,12.992,12.992,0,0,1,17.078-7.057,13.128,13.128,0,0,1,7.178,7.57,6.164,6.164,0,0,1,6.2,5.895,7.31,7.31,0,0,0-.168-10.254A7.128,7.128,0,0,0,280.308,388.757Z" transform="translate(-244.612 -378.701)" fill="#77c9d6"/>
      <path id="Rain_Drop_Base" data-name="Rain Drop Base" d="M318.894,457.063a1.352,1.352,0,1,1-2.677.383l0-.014c-.1-.748,1.031-2.475,1.031-2.475S318.794,456.315,318.894,457.063Z" transform="translate(-288.113 -425.033)" fill="#306b72"/>
      <path id="Rain_Drop_Base-2" data-name="Rain Drop Base-2" d="M305.549,465.2a1.352,1.352,0,1,1-2.679.368c-.1-.748,1.031-2.474,1.031-2.474S305.449,464.451,305.549,465.2Z" transform="translate(-280.005 -429.978)" fill="#44bacf"/>
      <path id="Rain_Drop_Base-3" data-name="Rain Drop Base-3" d="M288.12,462.87a1.352,1.352,0,1,1-2.677.382l0-.014c-.1-.747,1.031-2.475,1.031-2.475S288.019,462.122,288.12,462.87Z" transform="translate(-269.415 -428.561)" fill="#306b72"/>
      <path id="Rain_Drop_Base-4" data-name="Rain Drop Base-4" d="M272.232,452.107a1.352,1.352,0,1,1-2.677.383l0-.014c-.1-.748,1.032-2.475,1.032-2.475S272.131,451.359,272.232,452.107Z" transform="translate(-259.762 -422.022)" fill="#44bacf"/>
      <path id="Rain_Drop_Base-5" data-name="Rain Drop Base-5" d="M329.7,447.972a1.352,1.352,0,1,1-2.679.368c-.1-.748,1.031-2.475,1.031-2.475S329.595,447.224,329.7,447.972Z" transform="translate(-294.676 -419.51)" fill="#44bacf"/>
    </g>
    <g id="shine_1" data-name="shine 1" transform="translate(12.616 8.697)" opacity="0.38">
      <path id="Path_64" data-name="Path 64" d="M276.764,406.684s3.443-6.863,11.1-5.587" transform="translate(-276.764 -400.909)" fill="#fff"/>
      <path id="Path_65" data-name="Path 65" d="M276.763,406.638a10.5,10.5,0,0,1,9.036-5.775,11.739,11.739,0,0,1,2.061.188,13.332,13.332,0,0,0-2.059-.123,10.34,10.34,0,0,0-2.833.491,11.609,11.609,0,0,0-6.2,5.219h0Z" transform="translate(-276.763 -400.863)" fill="#fff"/>
    </g>
    <g id="shine_3" data-name="shine 3" transform="translate(41.447 17.423)" opacity="0.38">
      <path id="Path_68" data-name="Path 68" d="M350.233,423.1a2.072,2.072,0,0,1,.587,1.569" transform="translate(-350.233 -423.101)" fill="#fff"/>
      <path id="Path_69" data-name="Path 69" d="M350.233,423.1a1.606,1.606,0,0,1,.587,1.569A2.932,2.932,0,0,0,350.233,423.1Z" transform="translate(-350.233 -423.101)" fill="#fff"/>
    </g>
  </g>
  <g id="Group_8" data-name="Group 8" transform="translate(13.043 17.423)">
    <g id="Group_7" data-name="Group 7">
      <g id="Group_6" data-name="Group 6" transform="translate(1.515)">
        <g id="Group_4" data-name="Group 4">
          <path id="Path_18" data-name="Path 18" d="M285.8,425.274a2.046,2.046,0,1,1-2.041-2.173A2.109,2.109,0,0,1,285.8,425.274Z" transform="translate(-281.71 -423.101)" fill="#030504"/>
          <path id="Path_19" data-name="Path 19" d="M282.853,426.062a1.05,1.05,0,1,1,1.047,1.126,1.086,1.086,0,0,1-1.047-1.123Z" transform="translate(-282.404 -424.308)" fill="#fff"/>
          <path id="Path_20" data-name="Path 20" d="M287.455,430.522a.545.545,0,0,1,.5-.549.511.511,0,0,1,.5.521c0,.009,0,.019,0,.028a.5.5,0,1,1-.995.1.545.545,0,0,1,0-.1Z" transform="translate(-285.199 -427.276)" fill="#fff"/>
        </g>
        <g id="Group_5" data-name="Group 5" transform="translate(10.63)">
          <path id="Path_21" data-name="Path 21" d="M312.886,425.274a2.046,2.046,0,1,1-2.041-2.173A2.109,2.109,0,0,1,312.886,425.274Z" transform="translate(-308.798 -423.101)" fill="#030504"/>
          <path id="Path_22" data-name="Path 22" d="M309.941,426.062a1.05,1.05,0,1,1,1.047,1.126,1.086,1.086,0,0,1-1.047-1.123Z" transform="translate(-309.492 -424.308)" fill="#fff"/>
          <path id="Path_23" data-name="Path 23" d="M314.545,430.522a.545.545,0,0,1,.5-.549.511.511,0,0,1,.5.521c0,.009,0,.019,0,.028a.545.545,0,0,1-.5.549A.526.526,0,0,1,314.545,430.522Z" transform="translate(-312.289 -427.276)" fill="#fff"/>
        </g>
      </g>
      <path id="Path_24" data-name="Path 24" d="M280.887,434.129c0,.576-.681,1.02-1.519,1.02s-1.519-.471-1.519-1.02.681-1.02,1.519-1.02C280.2,433.082,280.887,433.553,280.887,434.129Z" transform="translate(-277.85 -429.181)" fill="#fff"/>
      <path id="Path_25" data-name="Path 25" d="M318.383,434.129c0,.576-.681,1.02-1.519,1.02s-1.519-.471-1.519-1.02.681-1.02,1.519-1.02C317.7,433.082,318.383,433.553,318.383,434.129Z" transform="translate(-300.632 -429.181)" fill="#fff"/>
    </g>
    <path id="Path_26" data-name="Path 26" d="M297.264,437.572a2.137,2.137,0,0,1-2.068-2.2.392.392,0,1,1,.785,0,1.289,1.289,0,1,0,2.566.25,1.275,1.275,0,0,0,0-.25.392.392,0,1,1,.785,0A2.137,2.137,0,0,1,297.264,437.572Z" transform="translate(-288.388 -430.32)" fill="#030504"/>
  </g>
</svg>
