<svg id="Group_51" data-name="Group 51" xmlns="http://www.w3.org/2000/svg" width="40.281" height="43.31" viewBox="0 0 40.281 43.31">
  <g id="cloudy_icon" data-name="cloudy icon">
    <g id="Cloudy_Rain" data-name="Cloudy Rain">
      <path id="pink_cloud" data-name="pink cloud" d="M115.477,487.412a12.185,12.185,0,0,0-22.745-.483,7.114,7.114,0,0,0-5.8,8.191,7.2,7.2,0,0,0,.337,1.29,8.118,8.118,0,0,0,4.137.971,8.23,8.23,0,0,0,1.891-.288,14.179,14.179,0,0,0,20.194-.857,14.391,14.391,0,0,0,1.167-1.464,6.679,6.679,0,0,0,6.632-1.829,5.781,5.781,0,0,0-5.817-5.527Z" transform="translate(-82.903 -471.984)" fill="#96d7e8"/>
      <path id="salmond_cloud" data-name="salmond cloud" d="M109.611,468.769a14.242,14.242,0,0,0-26.584-.564,8.352,8.352,0,0,0-2.518,15.562,7.145,7.145,0,0,1,4.184-9.14,6.959,6.959,0,0,1,1.276-.341,12.183,12.183,0,0,1,16.013-6.617,12.311,12.311,0,0,1,6.731,7.1,5.78,5.78,0,0,1,5.817,5.527,6.855,6.855,0,0,0-.158-9.615A6.683,6.683,0,0,0,109.611,468.769Z" transform="translate(-76.14 -459.34)" fill="#77c9d6"/>
      <path id="Path_138" data-name="Path 138" d="M128.012,540.443q-.354-.6-4.165,3.707l3.393,5.933q-2.086,3.325-1.875,3.726.275.524,4.478-3.955a25.9,25.9,0,0,1-3.177-5.866Q128.273,540.888,128.012,540.443Z" transform="translate(-106.293 -510.554)" fill="#44bacf"/>
      <path id="Path_139" data-name="Path 139" d="M153.749,530.23q-.344-.529-4.034,3.246l3.287,5.2q-2.02,2.911-1.816,3.262.267.459,4.338-3.463a22.165,22.165,0,0,1-3.078-5.137Q154,530.619,153.749,530.23Z" transform="translate(-122.643 -504.105)" fill="#44bacf"/>
      <path id="Path_140" data-name="Path 140" d="M101.487,532.794q-.344-.529-4.034,3.246l3.287,5.2q-2.02,2.911-1.817,3.262.267.459,4.338-3.463a22.164,22.164,0,0,1-3.078-5.137Q101.739,533.183,101.487,532.794Z" transform="translate(-89.611 -505.725)" fill="#44bacf"/>
    </g>
    <g id="shine_1" data-name="shine 1" transform="translate(11.83 8.155)" opacity="0.38">
      <path id="Path_64" data-name="Path 64" d="M108.292,486.965s3.229-6.436,10.4-5.239" transform="translate(-108.292 -481.55)" fill="#fff"/>
      <path id="Path_65" data-name="Path 65" d="M108.291,486.917a9.847,9.847,0,0,1,8.472-5.415,11.011,11.011,0,0,1,1.932.176,12.512,12.512,0,0,0-1.931-.115,9.693,9.693,0,0,0-2.657.461,10.887,10.887,0,0,0-5.817,4.894h0Z" transform="translate(-108.291 -481.502)" fill="#fff"/>
    </g>
    <g id="shine_3" data-name="shine 3" transform="translate(38.864 16.337)" opacity="0.38">
      <path id="Path_68" data-name="Path 68" d="M181.762,503.741a1.943,1.943,0,0,1,.55,1.471" transform="translate(-181.762 -503.741)" fill="#fff"/>
      <path id="Path_69" data-name="Path 69" d="M181.762,503.741a1.5,1.5,0,0,1,.55,1.471A2.747,2.747,0,0,0,181.762,503.741Z" transform="translate(-181.762 -503.741)" fill="#fff"/>
    </g>
  </g>
  <g id="Group_8" data-name="Group 8" transform="translate(12.23 16.337)">
    <g id="Group_7" data-name="Group 7">
      <g id="Group_6" data-name="Group 6" transform="translate(1.42)">
        <g id="Group_4" data-name="Group 4">
          <path id="Path_18" data-name="Path 18" d="M117.072,505.779a1.919,1.919,0,1,1-1.913-2.038A1.978,1.978,0,0,1,117.072,505.779Z" transform="translate(-113.239 -503.741)" fill="#030504"/>
          <path id="Path_19" data-name="Path 19" d="M114.381,506.642a.985.985,0,1,1,.982,1.056,1.019,1.019,0,0,1-.982-1.054Z" transform="translate(-113.96 -504.997)" fill="#fff"/>
          <path id="Path_20" data-name="Path 20" d="M118.983,511.128a.511.511,0,0,1,.467-.515.478.478,0,0,1,.468.489c0,.009,0,.018,0,.026a.469.469,0,1,1-.933.095.451.451,0,0,1,0-.095Z" transform="translate(-116.868 -508.084)" fill="#fff"/>
        </g>
        <g id="Group_5" data-name="Group 5" transform="translate(9.967)">
          <path id="Path_21" data-name="Path 21" d="M144.16,505.779a1.919,1.919,0,1,1-1.913-2.038A1.978,1.978,0,0,1,144.16,505.779Z" transform="translate(-140.327 -503.741)" fill="#030504"/>
          <path id="Path_22" data-name="Path 22" d="M141.469,506.642a.985.985,0,1,1,.982,1.056,1.019,1.019,0,0,1-.982-1.054Z" transform="translate(-141.048 -504.997)" fill="#fff"/>
          <path id="Path_23" data-name="Path 23" d="M146.074,511.128a.511.511,0,0,1,.467-.515.478.478,0,0,1,.468.489c0,.009,0,.018,0,.026a.511.511,0,0,1-.467.515A.494.494,0,0,1,146.074,511.128Z" transform="translate(-143.959 -508.084)" fill="#fff"/>
        </g>
      </g>
      <path id="Path_24" data-name="Path 24" d="M112.227,514.7c0,.54-.638.957-1.424.957s-1.424-.442-1.424-.957.638-.957,1.424-.957C111.587,513.723,112.227,514.165,112.227,514.7Z" transform="translate(-109.379 -510.065)" fill="#fff"/>
      <path id="Path_25" data-name="Path 25" d="M149.723,514.7c0,.54-.638.957-1.424.957s-1.424-.442-1.424-.957.638-.957,1.424-.957C149.083,513.723,149.723,514.165,149.723,514.7Z" transform="translate(-133.078 -510.065)" fill="#fff"/>
    </g>
    <path id="Path_26" data-name="Path 26" d="M128.664,518.05a2,2,0,0,1-1.939-2.061.368.368,0,1,1,.736,0,1.209,1.209,0,1,0,2.406.234,1.248,1.248,0,0,0,0-.234.368.368,0,1,1,.736,0A2,2,0,0,1,128.664,518.05Z" transform="translate(-120.342 -511.25)" fill="#030504"/>
  </g>
</svg>
