<?xml version="1.0" encoding="utf-8"?>
<!-- Generator: Adobe Illustrator 26.5.0, SVG Export Plug-In . SVG Version: 6.00 Build 0)  -->
<svg version="1.1" id="Layer_1" xmlns="http://www.w3.org/2000/svg" xmlns:xlink="http://www.w3.org/1999/xlink" x="0px" y="0px"
	 viewBox="0 0 161.4 161" style="enable-background:new 0 0 161.4 161;" xml:space="preserve">
<style type="text/css">
	.st0{fill:#F5DAA3;stroke:#000000;stroke-width:4;stroke-miterlimit:10;}
	.st1{fill:#F3C48C;}
	.st2{fill:#F06EAA;}
	.st3{fill:none;stroke:#000000;stroke-width:4;stroke-linecap:round;stroke-miterlimit:10;}
</style>
<g>
	<path class="st0" d="M155.6,92.2c-16.3,9.1-20.9,19.1-16,36.7c-18.2-1-26.8,5.4-31.1,23.1c-15.3-9.8-26.3-8.3-39.7,4.7
		c-9.1-16.3-19.1-20.9-36.7-16c1-18.2-5.4-26.8-23.1-31.1c9.8-15.3,8.3-26.3-4.7-39.7c16.3-9.1,20.9-19.1,16-36.7
		c18.2,1,26.8-5.4,31.1-23.1c15.3,9.8,26.3,8.3,39.7-4.7c9.1,16.3,19.1,20.9,36.7,16c-1,18.2,5.4,26.8,23.1,31.1
		C141.2,67.9,142.6,78.8,155.6,92.2z"/>
	<path class="st1" d="M128.5,81.1c0,26.8-21.7,48.5-48.5,48.5c-26.8,0-48.5-21.7-48.5-48.5c0-26.8,21.7-48.5,48.5-48.5
		C106.8,32.6,128.5,54.3,128.5,81.1z"/>
	<g>
		<path class="st2" d="M55.6,101.9c0,3.8-2.9,6.8-6.5,6.8c-3.6,0-6.5-3-6.5-6.8c0-3.8,2.9-6.8,6.5-6.8
			C52.7,95.1,55.6,98.1,55.6,101.9z"/>
		<path class="st2" d="M118,101.9c0,3.8-2.9,6.8-6.5,6.8c-3.6,0-6.5-3-6.5-6.8c0-3.8,2.9-6.8,6.5-6.8C115.1,95.1,118,98.1,118,101.9
			z"/>
		<path class="st3" d="M87.4,96.3c0,3.9-3.2,7.1-7.1,7.1c-3.9,0-7.1-3.2-7.1-7.1"/>
		<path class="st3" d="M65.3,88.2c0-3.9-3.2-7.1-7.1-7.1s-7.1,3.2-7.1,7.1"/>
		<path class="st3" d="M109.6,88.2c0-3.9-3.2-7.1-7.1-7.1c-3.9,0-7.1,3.2-7.1,7.1"/>
	</g>
</g>
</svg>
