<?xml version="1.0" encoding="utf-8"?>
<!-- Generator: Adobe Illustrator 26.5.0, SVG Export Plug-In . SVG Version: 6.00 Build 0)  -->
<svg version="1.1" id="Layer_1" xmlns="http://www.w3.org/2000/svg" xmlns:xlink="http://www.w3.org/1999/xlink" x="0px" y="0px"
	 viewBox="0 0 312.9 229.3" style="enable-background:new 0 0 312.9 229.3;" xml:space="preserve">
<style type="text/css">
	.st0{fill:none;stroke:#000000;stroke-width:8;stroke-linejoin:round;stroke-miterlimit:10;}
	.st1{fill:#543D24;stroke:#000000;stroke-miterlimit:10;}
	.st2{fill:#437C31;stroke:#000000;stroke-miterlimit:10;}
	.st3{fill:#4EC44B;stroke:#000000;stroke-width:4;stroke-miterlimit:10;}
	.st4{fill:#FFFFFF;}
	.st5{fill:#F4BDD7;stroke:#000000;stroke-miterlimit:10;}
</style>
<g>
	<path class="st0" d="M292.5,151.1c-0.8-0.6-0.7-1.9,0.2-2.5c4.2-2.4,7.1-5.5,3.1-8.1c-3.2-2.1-9.9-5.2-13.5-6.8
		c-1-0.5-1.1-2-0.2-2.6l7-4.5c0.9-0.6,0.9-2-0.1-2.5l-11.5-6.6c-0.7-0.4-0.9-1.3-0.5-2l4.2-7.7c0.4-0.7,0.1-1.7-0.6-2.1l-9.8-5.2
		c-0.8-0.4-1-1.4-0.5-2.2l4.5-6.5c0.5-0.7,0.3-1.7-0.4-2.1l-15.6-10.4c-0.7-0.5-0.9-1.6-0.3-2.2l4.6-5.3c0.6-0.7,0.4-1.8-0.3-2.3
		l-11.6-7.2c-0.8-0.5-0.9-1.6-0.3-2.3c2-2.2,3.1-5.6,3.5-7.4c0.2-0.7-0.2-1.4-0.7-1.7l-11.4-5.8c-0.9-0.5-1.1-1.7-0.3-2.4
		c0.9-0.8,1.7-1.6,2.3-2.2c0.6-0.6,0.6-1.7-0.1-2.2c-3.3-2.5-7.8-6-10.4-7.9c-0.8-0.6-0.8-1.9,0.1-2.5l0.1,0c1-0.7,0.8-2.3-0.4-2.6
		c-7.6-2.1-16.7-15.4-16.7-15.4s-9,13.2-16.7,15.4c-1.2,0.3-1.4,2-0.4,2.6l0.1,0c0.9,0.5,0.9,1.9,0.1,2.5c-2.6,1.9-7.1,5.3-10.4,7.9
		c-0.7,0.5-0.8,1.6-0.1,2.2c0.6,0.6,1.5,1.5,2.3,2.2c0.8,0.7,0.6,2-0.3,2.4L182,50c0.4-0.4,0.8-0.8,1.2-1.2c0.6-0.6,0.6-1.7-0.1-2.2
		c-3.3-2.5-7.8-6-10.4-7.9c-0.8-0.6-0.8-1.9,0.1-2.5l0.1,0c1-0.7,0.8-2.3-0.4-2.7c-7.6-2.1-16.7-15.4-16.7-15.4s-9,13.2-16.7,15.4
		c-1.2,0.3-1.4,2-0.4,2.7l0.1,0c0.9,0.5,0.9,1.8,0.1,2.5c-2.6,1.9-7.1,5.3-10.4,7.9c-0.2,0.2-0.3,0.3-0.4,0.6l-3.9-2
		c-0.9-0.5-1.1-1.7-0.3-2.4c0.8-0.8,1.7-1.6,2.3-2.2c0.6-0.6,0.6-1.7-0.1-2.2c-3.3-2.5-7.8-6-10.4-7.9c-0.8-0.6-0.8-1.9,0.1-2.5
		l0.1,0c1-0.7,0.8-2.3-0.3-2.6c-7.6-2.1-16.7-15.4-16.7-15.4s-9,13.2-16.7,15.4c-1.2,0.3-1.4,2-0.3,2.6l0.1,0
		c0.8,0.5,0.9,1.9,0.1,2.5c-2.6,1.9-7.2,5.3-10.4,7.9c-0.7,0.5-0.8,1.6-0.1,2.2c0.6,0.6,1.5,1.5,2.3,2.2c0.8,0.7,0.6,2-0.3,2.4
		L61.9,51c-0.6,0.3-0.9,1-0.7,1.7c0.4,1.8,1.4,5.2,3.5,7.4c0.6,0.7,0.5,1.8-0.3,2.3l-11.6,7.2c-0.8,0.5-0.9,1.6-0.3,2.3l4.6,5.3
		c0.6,0.7,0.5,1.8-0.3,2.2L41,89.7c-0.7,0.4-0.8,1.4-0.4,2.1l4.5,6.5c0.5,0.7,0.3,1.8-0.5,2.2l-9.8,5.2c-0.7,0.4-1,1.3-0.6,2.1
		l4.2,7.7c0.4,0.7,0.2,1.6-0.5,2l-11.5,6.6c-0.9,0.5-1,2-0.1,2.5l7,4.5c1,0.6,0.9,2.1-0.2,2.6c-3.6,1.6-10.3,4.7-13.5,6.8
		c-4,2.6-1.1,5.7,3.1,8.1c0.9,0.5,1,1.8,0.2,2.5c-3.1,2.5-9.2,7.6-9.6,10.8c-0.4,3.1,8.2,2.1,13.2,1.2c1.2-0.2,2,1.2,1.4,2.2
		c-1.4,2.3-2.7,5.4-1.4,7.5c1.5,2.4,7.8,0.6,12-0.9c1.2-0.4,2.3,0.9,1.6,2.1c-1.8,3.4-3.4,8,1.2,9.1c5.6,1.4,13.4-3.4,17-5.9
		c0.9-0.6,2,0,2.1,1.1c0.2,2.8,0.6,7.3,1,9.7c0.5,3.1,6.5,0,10.3-5.2c0.7-0.9,2.1-0.6,2.4,0.5c0.8,3.1,2.5,7.4,5,7.8
		c2.7,0.4,5.1-2.5,7.1-5.7l-0.5,18.8c0,1.4,5.8,2.6,12.9,2.6s12.9-1.1,12.9-2.6v-16.1c0.3-0.2,0.6-0.4,0.9-0.5
		c1.6,2.2,3.5,3.8,5.4,3.6c0.2,2,0.4,3.9,0.6,5.3c0.5,3.1,6.5,0,10.4-5.2c0.7-0.9,2.1-0.6,2.4,0.5c0.9,3.1,2.5,7.4,5,7.8
		c2.7,0.4,5.1-2.5,7.1-5.7l-0.5,18.8c0,1.4,5.8,2.6,12.9,2.6s12.9-1.1,12.9-2.6v-17.9c1.9,2.9,4.1,5.2,6.6,4.9
		c2.5-0.4,4.2-4.7,5-7.8c0.3-1.1,1.7-1.4,2.4-0.5c3.9,5.2,9.9,8.4,10.4,5.2c0.4-2.2,0.7-6.2,0.9-9c0.9,1.9,2.1,3.5,3.6,3.7
		c1.6,0.2,3-0.6,4.4-2c0.8,0.4,1.7,0.8,2.6,1.2l-0.4,13.9c0,1.4,5.8,2.6,12.9,2.6s12.9-1.1,12.9-2.6v-17.9c1.9,2.9,4.1,5.2,6.6,4.9
		c2.5-0.4,4.2-4.7,5-7.8c0.3-1.1,1.7-1.4,2.4-0.5c3.9,5.2,9.9,8.4,10.4,5.2c0.4-2.4,0.8-6.9,1-9.7c0.1-1.1,1.2-1.7,2.1-1.1
		c3.6,2.5,11.4,7.3,17,5.9c4.6-1.1,3.1-5.8,1.2-9.1c-0.6-1.2,0.4-2.5,1.6-2.1c4.2,1.5,10.5,3.2,12,0.9c1.3-2.1,0-5.2-1.4-7.5
		c-0.6-1.1,0.2-2.4,1.4-2.2c5,0.8,13.6,1.8,13.2-1.2C301.7,158.7,295.6,153.6,292.5,151.1z"/>
	<path class="st1" d="M205.7,145l-1.7,59.2c0,1.4,5.8,2.6,12.9,2.6s12.9-1.1,12.9-2.6v-58.7L205.7,145z"/>
	<path class="st2" d="M292.5,151.1c-0.8-0.6-0.7-1.9,0.2-2.5c4.2-2.4,7.1-5.5,3.1-8.1c-3.2-2.1-9.9-5.2-13.5-6.8
		c-1-0.5-1.1-2-0.2-2.6l7-4.5c0.9-0.6,0.9-2-0.1-2.5l-11.5-6.6c-0.7-0.4-0.9-1.3-0.5-2l4.2-7.7c0.4-0.7,0.1-1.7-0.6-2.1l-9.8-5.2
		c-0.8-0.4-1-1.4-0.5-2.2l4.5-6.5c0.5-0.7,0.3-1.7-0.4-2.1l-15.6-10.4c-0.7-0.5-0.9-1.6-0.3-2.2l4.6-5.3c0.6-0.7,0.4-1.8-0.3-2.3
		l-11.6-7.2c-0.8-0.5-0.9-1.6-0.3-2.3c2-2.2,3.1-5.6,3.5-7.4c0.2-0.7-0.2-1.4-0.7-1.7l-11.4-5.8c-0.9-0.5-1.1-1.7-0.3-2.4
		c0.9-0.8,1.7-1.6,2.3-2.2c0.6-0.6,0.6-1.7-0.1-2.2c-3.3-2.5-7.8-6-10.4-7.9c-0.8-0.6-0.8-1.9,0.1-2.5l0.1,0c1-0.7,0.8-2.3-0.4-2.6
		c-7.6-2.1-16.7-15.4-16.7-15.4s-9,13.2-16.7,15.4c-1.2,0.3-1.4,2-0.4,2.6l0.1,0c0.9,0.5,0.9,1.9,0.1,2.5c-2.6,1.9-7.1,5.3-10.4,7.9
		c-0.7,0.5-0.8,1.6-0.1,2.2c0.6,0.6,1.5,1.5,2.3,2.2c0.8,0.7,0.6,2-0.3,2.4L180.1,51c-0.6,0.3-0.9,1-0.7,1.7
		c0.4,1.8,1.4,5.2,3.5,7.4c0.6,0.7,0.5,1.8-0.3,2.3l-11.6,7.2c-0.8,0.5-0.9,1.6-0.3,2.3l4.6,5.3c0.6,0.7,0.4,1.8-0.3,2.2l-15.6,10.4
		c-0.7,0.4-0.9,1.4-0.4,2.1l4.5,6.5c0.5,0.7,0.3,1.8-0.5,2.2l-9.8,5.2c-0.7,0.4-1,1.3-0.6,2.1l4.2,7.7c0.4,0.7,0.1,1.6-0.5,2
		l-11.5,6.6c-0.9,0.5-1,2-0.1,2.5l7,4.5c1,0.6,0.9,2.1-0.2,2.6c-3.6,1.6-10.3,4.7-13.5,6.8c-4,2.6-1.1,5.7,3.1,8.1
		c0.9,0.5,1,1.8,0.2,2.5c-3.1,2.5-9.2,7.6-9.6,10.8c-0.4,3.1,8.2,2.1,13.2,1.2c1.2-0.2,2,1.2,1.4,2.2c-1.4,2.3-2.7,5.4-1.4,7.5
		c1.5,2.4,7.8,0.6,12-0.9c1.2-0.4,2.3,0.9,1.6,2.1c-1.8,3.4-3.4,8,1.2,9.1c5.6,1.4,13.4-3.4,17-5.9c0.9-0.6,2,0,2.1,1.1
		c0.2,2.8,0.6,7.3,1,9.7c0.5,3.1,6.5,0,10.4-5.2c0.7-0.9,2.1-0.6,2.4,0.5c0.9,3.1,2.5,7.4,5,7.8c3.1,0.5,5.9-3.5,8.1-7.3
		c0.6-1.1,2.1-0.9,2.5,0.3c1.1,3.8,3.6,9.7,7.8,10.1c0.4,0,0.8,0,1.1-0.1c0.4,0.1,0.7,0.1,1.1,0.1c4.2-0.4,6.6-6.2,7.8-10.1
		c0.4-1.2,1.9-1.4,2.5-0.3c2.2,3.8,4.9,7.8,8.1,7.3c2.5-0.4,4.2-4.7,5-7.8c0.3-1.1,1.7-1.4,2.4-0.5c3.9,5.2,9.9,8.4,10.4,5.2
		c0.4-2.4,0.8-6.9,1-9.7c0.1-1.1,1.2-1.7,2.1-1.1c3.6,2.5,11.4,7.3,17,5.9c4.6-1.1,3.1-5.8,1.2-9.1c-0.6-1.2,0.4-2.5,1.6-2.1
		c4.2,1.5,10.5,3.2,12,0.9c1.3-2.1,0-5.2-1.4-7.5c-0.6-1.1,0.2-2.4,1.4-2.2c5,0.8,13.6,1.8,13.2-1.2
		C301.7,158.7,295.6,153.6,292.5,151.1z"/>
	<path class="st1" d="M87.5,145l-1.7,59.2c0,1.4,5.8,2.6,12.9,2.6s12.9-1.1,12.9-2.6v-58.7L87.5,145z"/>
	<path class="st2" d="M174.3,151.1c-0.8-0.6-0.7-1.9,0.2-2.5c4.2-2.4,7.1-5.5,3.1-8.1c-3.2-2.1-9.9-5.2-13.5-6.8
		c-1-0.5-1.1-2-0.2-2.6l7-4.5c0.9-0.6,0.9-2-0.1-2.5l-11.5-6.6c-0.7-0.4-0.9-1.3-0.5-2l4.2-7.7c0.4-0.7,0.1-1.7-0.6-2.1l-9.8-5.2
		c-0.8-0.4-1-1.4-0.5-2.2l4.5-6.5c0.5-0.7,0.3-1.7-0.4-2.1l-15.6-10.4c-0.7-0.5-0.9-1.6-0.3-2.2l4.6-5.3c0.6-0.7,0.4-1.8-0.3-2.3
		l-11.6-7.2c-0.8-0.5-0.9-1.6-0.3-2.3c2-2.2,3.1-5.6,3.5-7.4c0.2-0.7-0.2-1.4-0.7-1.7l-11.4-5.8c-0.9-0.5-1.1-1.7-0.3-2.4
		c0.8-0.8,1.7-1.6,2.3-2.2c0.6-0.6,0.6-1.7-0.1-2.2c-3.3-2.5-7.8-6-10.4-7.9c-0.8-0.6-0.8-1.9,0.1-2.5l0.1,0c1-0.7,0.8-2.3-0.3-2.6
		c-7.6-2.1-16.7-15.4-16.7-15.4s-9,13.2-16.7,15.4c-1.2,0.3-1.4,2-0.3,2.6l0.1,0c0.8,0.5,0.9,1.9,0.1,2.5c-2.6,1.9-7.2,5.3-10.4,7.9
		c-0.7,0.5-0.8,1.6-0.1,2.2c0.6,0.6,1.5,1.5,2.3,2.2c0.8,0.7,0.6,2-0.3,2.4L61.9,51c-0.6,0.3-0.9,1-0.7,1.7c0.4,1.8,1.4,5.2,3.5,7.4
		c0.6,0.7,0.5,1.8-0.3,2.3l-11.6,7.2c-0.8,0.5-0.9,1.6-0.3,2.3l4.6,5.3c0.6,0.7,0.5,1.8-0.3,2.2L41,89.7c-0.7,0.4-0.8,1.4-0.4,2.1
		l4.5,6.5c0.5,0.7,0.3,1.8-0.5,2.2l-9.8,5.2c-0.7,0.4-1,1.3-0.6,2.1l4.2,7.7c0.4,0.7,0.2,1.6-0.5,2l-11.5,6.6c-0.9,0.5-1,2-0.1,2.5
		l7,4.5c1,0.6,0.9,2.1-0.2,2.6c-3.6,1.6-10.3,4.7-13.5,6.8c-4,2.6-1.1,5.7,3.1,8.1c0.9,0.5,1,1.8,0.2,2.5c-3.1,2.5-9.2,7.6-9.6,10.8
		c-0.4,3.1,8.2,2.1,13.2,1.2c1.2-0.2,2,1.2,1.4,2.2c-1.4,2.3-2.7,5.4-1.4,7.5c1.5,2.4,7.8,0.6,12-0.9c1.2-0.4,2.3,0.9,1.6,2.1
		c-1.8,3.4-3.4,8,1.2,9.1c5.6,1.4,13.4-3.4,17-5.9c0.9-0.6,2,0,2.1,1.1c0.2,2.8,0.6,7.3,1,9.7c0.5,3.1,6.5,0,10.3-5.2
		c0.7-0.9,2.1-0.6,2.4,0.5c0.8,3.1,2.5,7.4,5,7.8c3.1,0.5,5.9-3.5,8.1-7.3c0.6-1.1,2.1-0.9,2.5,0.3c1.1,3.8,3.6,9.7,7.8,10.1
		c0.4,0,0.8,0,1.1-0.1c0.4,0.1,0.7,0.1,1.1,0.1c4.2-0.4,6.6-6.2,7.8-10.1c0.3-1.2,1.9-1.4,2.5-0.3c2.2,3.8,4.9,7.8,8.1,7.3
		c2.5-0.4,4.2-4.7,5-7.8c0.3-1.1,1.7-1.4,2.4-0.5c3.9,5.2,9.9,8.4,10.4,5.2c0.4-2.4,0.8-6.9,1-9.7c0.1-1.1,1.2-1.7,2.1-1.1
		c3.6,2.5,11.4,7.3,17,5.9c4.6-1.1,3.1-5.8,1.2-9.1c-0.6-1.2,0.4-2.5,1.6-2.1c4.2,1.5,10.5,3.2,12,0.9c1.3-2.1,0-5.2-1.4-7.5
		c-0.6-1.1,0.2-2.4,1.4-2.2c5,0.8,13.6,1.8,13.2-1.2C183.5,158.7,177.5,153.6,174.3,151.1z"/>
	<path class="st1" d="M144.6,153.3l-1.7,59.2c0,1.4,5.8,2.6,12.9,2.6s12.9-1.1,12.9-2.6v-58.7L144.6,153.3z"/>
	<path class="st3" d="M231.4,159.4c-0.8-0.6-0.7-1.9,0.2-2.5c4.2-2.4,7.1-5.5,3.1-8.1c-3.2-2.1-9.9-5.2-13.5-6.8
		c-1-0.5-1.1-2-0.2-2.6l7-4.5c0.9-0.6,0.9-2-0.1-2.5l-11.5-6.6c-0.7-0.4-0.9-1.3-0.5-2l4.2-7.7c0.4-0.7,0.1-1.7-0.6-2.1l-9.8-5.2
		c-0.8-0.4-1-1.4-0.5-2.2l4.5-6.5c0.5-0.7,0.3-1.7-0.4-2.1l-15.7-10.4c-0.7-0.5-0.9-1.6-0.3-2.2l4.6-5.3c0.6-0.7,0.4-1.8-0.3-2.3
		l-11.6-7.2c-0.8-0.5-0.9-1.6-0.3-2.3c2-2.2,3.1-5.6,3.5-7.4c0.2-0.7-0.2-1.4-0.7-1.7l-11.4-5.8c-0.9-0.5-1.1-1.7-0.3-2.4
		c0.9-0.8,1.7-1.6,2.3-2.2c0.6-0.6,0.6-1.7-0.1-2.2c-3.3-2.5-7.8-6-10.4-7.9c-0.8-0.6-0.8-1.9,0.1-2.5l0.1,0c1-0.7,0.8-2.3-0.4-2.7
		c-7.6-2.1-16.7-15.4-16.7-15.4s-9,13.2-16.7,15.4c-1.2,0.3-1.4,2-0.4,2.7l0.1,0c0.9,0.5,0.9,1.8,0.1,2.5c-2.6,1.9-7.1,5.3-10.4,7.9
		c-0.7,0.5-0.8,1.6-0.1,2.2c0.6,0.6,1.5,1.5,2.3,2.2c0.8,0.7,0.6,2-0.3,2.4l-11.4,5.8c-0.6,0.3-0.9,1-0.7,1.7
		c0.4,1.8,1.4,5.2,3.5,7.4c0.6,0.7,0.5,1.8-0.3,2.3l-11.6,7.2c-0.8,0.5-0.9,1.6-0.3,2.3l4.6,5.3c0.6,0.7,0.4,1.8-0.3,2.2L98,98
		c-0.7,0.4-0.8,1.4-0.4,2.1l4.5,6.5c0.5,0.7,0.3,1.8-0.5,2.2l-9.8,5.2c-0.7,0.4-1,1.3-0.6,2.1l4.2,7.7c0.4,0.7,0.2,1.6-0.5,2
		l-11.5,6.6c-0.9,0.5-1,2-0.1,2.5l7,4.5c1,0.6,0.9,2.1-0.2,2.6c-3.6,1.6-10.3,4.7-13.5,6.8c-4,2.6-1.1,5.7,3.1,8.1
		c0.9,0.5,1,1.8,0.2,2.5c-3.1,2.5-9.2,7.6-9.6,10.8c-0.4,3.1,8.2,2.1,13.2,1.2c1.2-0.2,2,1.2,1.4,2.2c-1.4,2.3-2.7,5.4-1.4,7.5
		c1.5,2.4,7.8,0.6,12-0.9c1.2-0.4,2.3,0.9,1.6,2.1c-1.8,3.4-3.4,8,1.2,9.1c5.6,1.4,13.4-3.4,17-5.9c0.9-0.6,2,0,2.1,1.1
		c0.2,2.8,0.6,7.3,1,9.7c0.5,3.1,6.5,0,10.4-5.2c0.7-0.9,2.1-0.6,2.4,0.5c0.9,3.1,2.5,7.4,5,7.8c3.1,0.5,5.9-3.5,8.1-7.3
		c0.6-1.1,2.1-0.9,2.5,0.3c1.1,3.8,3.6,9.7,7.8,10.1c0.4,0,0.8,0,1.1-0.1c0.4,0.1,0.7,0.1,1.1,0.1c4.2-0.4,6.6-6.2,7.8-10.1
		c0.4-1.2,1.9-1.4,2.5-0.3c2.2,3.8,4.9,7.8,8.1,7.3c2.5-0.4,4.2-4.7,5-7.8c0.3-1.1,1.7-1.4,2.4-0.5c3.9,5.2,9.9,8.4,10.4,5.2
		c0.4-2.4,0.8-6.9,1-9.7c0.1-1.1,1.2-1.7,2.1-1.1c3.6,2.5,11.4,7.3,17,5.9c4.6-1.1,3.1-5.8,1.2-9.1c-0.6-1.2,0.4-2.5,1.6-2.1
		c4.2,1.5,10.5,3.2,12,0.9c1.3-2.1,0-5.2-1.4-7.5c-0.6-1.1,0.2-2.4,1.4-2.2c5,0.8,13.6,1.8,13.2-1.2
		C240.6,167,234.5,161.9,231.4,159.4z"/>
	<g>
		<g>
			<g>
				<g>
					<path d="M144.4,158.6c0,4.6-3.5,8.4-7.8,8.4s-7.8-3.7-7.8-8.4s3.5-8.4,7.8-8.4C140.9,150.2,144.4,153.9,144.4,158.6z"/>
					<path class="st4" d="M130.6,157c0-2.4,1.8-4.3,4-4.3c2.2,0,4,1.9,4,4.3s-1.8,4.3-4,4.3S130.6,159.3,130.6,157z"/>
					<path class="st4" d="M137.4,162.6c0-1.1,0.9-2.1,1.9-2.1c1.1,0,1.9,0.9,1.9,2.1s-0.9,2.1-1.9,2.1
						C138.3,164.7,137.4,163.8,137.4,162.6z"/>
				</g>
				<g>
					<path d="M185,158.6c0,4.6-3.5,8.4-7.8,8.4s-7.8-3.7-7.8-8.4s3.5-8.4,7.8-8.4C181.5,150.2,185,153.9,185,158.6z"/>
					<path class="st4" d="M171.2,157c0-2.4,1.8-4.3,4-4.3c2.2,0,4,1.9,4,4.3s-1.8,4.3-4,4.3C173,161.2,171.2,159.3,171.2,157z"/>
					<path class="st4" d="M178.1,162.6c0-1.1,0.9-2.1,1.9-2.1c1.1,0,1.9,0.9,1.9,2.1s-0.9,2.1-1.9,2.1
						C178.9,164.7,178.1,163.8,178.1,162.6z"/>
				</g>
			</g>
			<path class="st5" d="M134.7,169.1c0,2.2-2.6,3.9-5.9,3.9c-3.2,0-5.8-1.8-5.8-3.9s2.6-3.9,5.8-3.9S134.7,166.9,134.7,169.1z"/>
			<path class="st5" d="M190.9,169.1c0,2.2-2.6,3.9-5.9,3.9c-3.2,0-5.9-1.8-5.9-3.9s2.6-3.9,5.9-3.9S190.9,166.9,190.9,169.1z"/>
		</g>
		<path d="M156.9,178c-4.4,0-7.9-3.8-7.9-8.4c0-0.8,0.7-1.5,1.5-1.5s1.5,0.7,1.5,1.5c0,3,2.2,5.4,4.9,5.4s4.9-2.4,4.9-5.4
			c0-0.8,0.7-1.5,1.5-1.5s1.5,0.7,1.5,1.5C164.8,174.2,161.3,178,156.9,178z"/>
	</g>
</g>
</svg>
